<svg width="49" height="49" viewBox="0 0 49 49" fill="none" xmlns="http://www.w3.org/2000/svg">
<path d="M24.2937 0.0313721C10.9148 0.0313721 0.0749512 10.8712 0.0749512 24.2501C0.0749512 37.629 10.9148 48.4689 24.2937 48.4689C37.6726 48.4689 48.5125 37.629 48.5125 24.2501C48.5125 10.8712 37.6726 0.0313721 24.2937 0.0313721ZM24.2937 9.40637C29.0398 9.40637 32.8875 13.254 32.8875 18.0001C32.8875 22.7462 29.0398 26.5939 24.2937 26.5939C19.5476 26.5939 15.7 22.7462 15.7 18.0001C15.7 13.254 19.5476 9.40637 24.2937 9.40637ZM24.2937 43.0001C18.5613 43.0001 13.4246 40.4025 9.98706 36.34C11.823 32.8829 15.4167 30.5001 19.6062 30.5001C19.8406 30.5001 20.075 30.5392 20.2996 30.6075C21.5691 31.0177 22.8972 31.2814 24.2937 31.2814C25.6902 31.2814 27.0281 31.0177 28.2878 30.6075C28.5125 30.5392 28.7468 30.5001 28.9812 30.5001C33.1707 30.5001 36.7644 32.8829 38.6003 36.34C35.1628 40.4025 30.0261 43.0001 24.2937 43.0001Z" fill="white"/>
</svg>
