<svg width="100" height="57" viewBox="0 0 100 57" fill="none" xmlns="http://www.w3.org/2000/svg">
<path d="M10.34 46.14L9.42 44.06L9 46.14L7.64 53H5.42L8.46 38.3H8.7L12.74 46.24L13.94 48.9L15.14 46.24L19.1 38.3H19.32L22.48 53H20.28L18.8 46.14L18.36 44.06L17.56 46.14L14 53H13.88L10.34 46.14ZM27.4906 53.2C26.224 53.2 25.3506 52.8267 24.8706 52.08C24.404 51.3333 24.1706 50.2933 24.1706 48.96V43.82H26.3306V48.42C26.3306 49.18 26.3706 49.7733 26.4506 50.2C26.544 50.6133 26.7173 50.92 26.9706 51.12C27.2373 51.32 27.6306 51.42 28.1506 51.42C28.524 51.42 28.884 51.3133 29.2306 51.1C29.5773 50.8867 29.8573 50.6 30.0706 50.24C30.2973 49.8667 30.4106 49.46 30.4106 49.02V43.82H32.5506V53H30.7906L30.5506 51.66C30.2173 52.18 29.7973 52.5667 29.2906 52.82C28.7973 53.0733 28.1973 53.2 27.4906 53.2ZM38.5839 53.2C37.9439 53.2 37.2772 53.12 36.5839 52.96C35.9039 52.7867 35.4172 52.5867 35.1239 52.36L35.8439 50.66C36.6439 51.22 37.5572 51.5 38.5839 51.5C39.6106 51.5 40.1239 51.2 40.1239 50.6C40.1239 50.3333 40.0172 50.1267 39.8039 49.98C39.5906 49.8333 39.2106 49.66 38.6639 49.46L37.9039 49.18C37.1039 48.86 36.4706 48.48 36.0039 48.04C35.5372 47.5867 35.3039 46.9933 35.3039 46.26C35.3039 45.42 35.6306 44.7667 36.2839 44.3C36.9506 43.82 37.8372 43.58 38.9439 43.58C39.4906 43.58 40.0239 43.64 40.5439 43.76C41.0772 43.88 41.4839 44.0333 41.7639 44.22L40.9839 45.94C40.8106 45.7667 40.5306 45.62 40.1439 45.5C39.7706 45.3667 39.3506 45.3 38.8839 45.3C37.9372 45.3 37.4639 45.5867 37.4639 46.16C37.4639 46.48 37.5906 46.7267 37.8439 46.9C38.0972 47.06 38.5106 47.24 39.0839 47.44C39.1372 47.4533 39.3439 47.5267 39.7039 47.66C40.5572 47.9933 41.1906 48.3733 41.6039 48.8C42.0172 49.2267 42.2239 49.7733 42.2239 50.44C42.2239 51.3467 41.8772 52.0333 41.1839 52.5C40.5039 52.9667 39.6372 53.2 38.5839 53.2ZM44.6269 43.82H46.8669V53H44.6269V43.82ZM45.7269 42.1C45.3135 42.1 44.9669 41.96 44.6869 41.68C44.4069 41.4 44.2669 41.0533 44.2669 40.64C44.2669 40.2667 44.4069 39.9467 44.6869 39.68C44.9669 39.4133 45.3135 39.28 45.7269 39.28C46.1269 39.28 46.4669 39.4133 46.7469 39.68C47.0269 39.9467 47.1669 40.2667 47.1669 40.64C47.1669 41.0533 47.0269 41.4 46.7469 41.68C46.4802 41.96 46.1402 42.1 45.7269 42.1ZM54.1375 53.2C53.2308 53.2 52.4108 53.0067 51.6775 52.62C50.9575 52.22 50.3842 51.6533 49.9575 50.92C49.5308 50.1733 49.3175 49.3 49.3175 48.3C49.3175 47.3533 49.5108 46.5267 49.8975 45.82C50.2975 45.1 50.8508 44.5467 51.5575 44.16C52.2775 43.7733 53.1042 43.58 54.0375 43.58C54.7442 43.58 55.3508 43.6733 55.8575 43.86C56.3775 44.0333 56.7842 44.2533 57.0775 44.52L56.1175 46.26C55.5575 45.7 54.9242 45.42 54.2175 45.42C53.3642 45.42 52.7108 45.68 52.2575 46.2C51.8175 46.72 51.5975 47.4133 51.5975 48.28C51.5975 49.2667 51.8242 50.0333 52.2775 50.58C52.7442 51.1267 53.3908 51.4 54.2175 51.4C54.6308 51.4 55.0308 51.34 55.4175 51.22C55.8175 51.1 56.1242 50.96 56.3375 50.8L57.1175 52.32C56.8242 52.5467 56.4108 52.7533 55.8775 52.94C55.3575 53.1133 54.7775 53.2 54.1375 53.2ZM59.3139 38.3H63.0539C65.1606 38.3 66.5606 38.6533 67.2539 39.36C67.9472 40.0667 68.2939 40.92 68.2939 41.92C68.2939 42.5867 68.1472 43.22 67.8539 43.82C67.5606 44.4067 67.0939 44.8467 66.4539 45.14C67.4006 45.38 68.0939 45.8 68.5339 46.4C68.9872 47 69.2139 47.7067 69.2139 48.52C69.2139 49.3733 69.0806 50.12 68.8139 50.76C68.5472 51.4 67.9939 51.9333 67.1539 52.36C66.3139 52.7867 65.1006 53 63.5139 53H59.3139V38.3ZM63.4139 44.54C64.3606 44.54 65.0339 44.3133 65.4339 43.86C65.8339 43.3933 66.0339 42.8067 66.0339 42.1C66.0339 40.8333 65.1272 40.2 63.3139 40.2H61.5139V44.54H63.4139ZM63.8139 51.12C65.0272 51.12 65.8406 50.88 66.2539 50.4C66.6806 49.9067 66.8939 49.2867 66.8939 48.54C66.8939 47.8333 66.6539 47.2867 66.1739 46.9C65.6939 46.5133 64.9672 46.32 63.9939 46.32H61.5139V51.12H63.8139ZM75.9734 53.2C75.0268 53.2 74.1868 52.9867 73.4534 52.56C72.7201 52.1333 72.1534 51.5533 71.7534 50.82C71.3534 50.0867 71.1534 49.2733 71.1534 48.38C71.1534 47.5 71.3468 46.6933 71.7334 45.96C72.1334 45.2267 72.7001 44.6467 73.4334 44.22C74.1668 43.7933 75.0134 43.58 75.9734 43.58C76.9334 43.58 77.7734 43.7933 78.4934 44.22C79.2268 44.6467 79.7868 45.2267 80.1734 45.96C80.5734 46.6933 80.7734 47.5 80.7734 48.38C80.7734 49.2733 80.5734 50.0867 80.1734 50.82C79.7734 51.5533 79.2068 52.1333 78.4734 52.56C77.7534 52.9867 76.9201 53.2 75.9734 53.2ZM76.0334 51.44C76.8068 51.44 77.4134 51.1533 77.8534 50.58C78.3068 50.0067 78.5334 49.2867 78.5334 48.42C78.5334 47.5533 78.2934 46.8267 77.8134 46.24C77.3334 45.64 76.7001 45.34 75.9134 45.34C75.1534 45.34 74.5401 45.6333 74.0734 46.22C73.6201 46.8067 73.3934 47.54 73.3934 48.42C73.3934 49.2733 73.6401 49.9933 74.1334 50.58C74.6268 51.1533 75.2601 51.44 76.0334 51.44ZM85.3202 48.24L82.1002 43.82H84.6602L86.5402 46.66L88.3202 43.82H90.9402L87.7002 48.12L91.2202 53H88.7402L86.5602 49.76L84.4802 53H81.8802L85.3202 48.24Z" fill="white"/>
<path d="M10.34 46.14L9.42 44.06L9 46.14L7.64 53H5.42L8.46 38.3H8.7L12.74 46.24L13.94 48.9L15.14 46.24L19.1 38.3H19.32L22.48 53H20.28L18.8 46.14L18.36 44.06L17.56 46.14L14 53H13.88L10.34 46.14ZM27.4906 53.2C26.224 53.2 25.3506 52.8267 24.8706 52.08C24.404 51.3333 24.1706 50.2933 24.1706 48.96V43.82H26.3306V48.42C26.3306 49.18 26.3706 49.7733 26.4506 50.2C26.544 50.6133 26.7173 50.92 26.9706 51.12C27.2373 51.32 27.6306 51.42 28.1506 51.42C28.524 51.42 28.884 51.3133 29.2306 51.1C29.5773 50.8867 29.8573 50.6 30.0706 50.24C30.2973 49.8667 30.4106 49.46 30.4106 49.02V43.82H32.5506V53H30.7906L30.5506 51.66C30.2173 52.18 29.7973 52.5667 29.2906 52.82C28.7973 53.0733 28.1973 53.2 27.4906 53.2ZM38.5839 53.2C37.9439 53.2 37.2772 53.12 36.5839 52.96C35.9039 52.7867 35.4172 52.5867 35.1239 52.36L35.8439 50.66C36.6439 51.22 37.5572 51.5 38.5839 51.5C39.6106 51.5 40.1239 51.2 40.1239 50.6C40.1239 50.3333 40.0172 50.1267 39.8039 49.98C39.5906 49.8333 39.2106 49.66 38.6639 49.46L37.9039 49.18C37.1039 48.86 36.4706 48.48 36.0039 48.04C35.5372 47.5867 35.3039 46.9933 35.3039 46.26C35.3039 45.42 35.6306 44.7667 36.2839 44.3C36.9506 43.82 37.8372 43.58 38.9439 43.58C39.4906 43.58 40.0239 43.64 40.5439 43.76C41.0772 43.88 41.4839 44.0333 41.7639 44.22L40.9839 45.94C40.8106 45.7667 40.5306 45.62 40.1439 45.5C39.7706 45.3667 39.3506 45.3 38.8839 45.3C37.9372 45.3 37.4639 45.5867 37.4639 46.16C37.4639 46.48 37.5906 46.7267 37.8439 46.9C38.0972 47.06 38.5106 47.24 39.0839 47.44C39.1372 47.4533 39.3439 47.5267 39.7039 47.66C40.5572 47.9933 41.1906 48.3733 41.6039 48.8C42.0172 49.2267 42.2239 49.7733 42.2239 50.44C42.2239 51.3467 41.8772 52.0333 41.1839 52.5C40.5039 52.9667 39.6372 53.2 38.5839 53.2ZM44.6269 43.82H46.8669V53H44.6269V43.82ZM45.7269 42.1C45.3135 42.1 44.9669 41.96 44.6869 41.68C44.4069 41.4 44.2669 41.0533 44.2669 40.64C44.2669 40.2667 44.4069 39.9467 44.6869 39.68C44.9669 39.4133 45.3135 39.28 45.7269 39.28C46.1269 39.28 46.4669 39.4133 46.7469 39.68C47.0269 39.9467 47.1669 40.2667 47.1669 40.64C47.1669 41.0533 47.0269 41.4 46.7469 41.68C46.4802 41.96 46.1402 42.1 45.7269 42.1ZM54.1375 53.2C53.2308 53.2 52.4108 53.0067 51.6775 52.62C50.9575 52.22 50.3842 51.6533 49.9575 50.92C49.5308 50.1733 49.3175 49.3 49.3175 48.3C49.3175 47.3533 49.5108 46.5267 49.8975 45.82C50.2975 45.1 50.8508 44.5467 51.5575 44.16C52.2775 43.7733 53.1042 43.58 54.0375 43.58C54.7442 43.58 55.3508 43.6733 55.8575 43.86C56.3775 44.0333 56.7842 44.2533 57.0775 44.52L56.1175 46.26C55.5575 45.7 54.9242 45.42 54.2175 45.42C53.3642 45.42 52.7108 45.68 52.2575 46.2C51.8175 46.72 51.5975 47.4133 51.5975 48.28C51.5975 49.2667 51.8242 50.0333 52.2775 50.58C52.7442 51.1267 53.3908 51.4 54.2175 51.4C54.6308 51.4 55.0308 51.34 55.4175 51.22C55.8175 51.1 56.1242 50.96 56.3375 50.8L57.1175 52.32C56.8242 52.5467 56.4108 52.7533 55.8775 52.94C55.3575 53.1133 54.7775 53.2 54.1375 53.2ZM59.3139 38.3H63.0539C65.1606 38.3 66.5606 38.6533 67.2539 39.36C67.9472 40.0667 68.2939 40.92 68.2939 41.92C68.2939 42.5867 68.1472 43.22 67.8539 43.82C67.5606 44.4067 67.0939 44.8467 66.4539 45.14C67.4006 45.38 68.0939 45.8 68.5339 46.4C68.9872 47 69.2139 47.7067 69.2139 48.52C69.2139 49.3733 69.0806 50.12 68.8139 50.76C68.5472 51.4 67.9939 51.9333 67.1539 52.36C66.3139 52.7867 65.1006 53 63.5139 53H59.3139V38.3ZM63.4139 44.54C64.3606 44.54 65.0339 44.3133 65.4339 43.86C65.8339 43.3933 66.0339 42.8067 66.0339 42.1C66.0339 40.8333 65.1272 40.2 63.3139 40.2H61.5139V44.54H63.4139ZM63.8139 51.12C65.0272 51.12 65.8406 50.88 66.2539 50.4C66.6806 49.9067 66.8939 49.2867 66.8939 48.54C66.8939 47.8333 66.6539 47.2867 66.1739 46.9C65.6939 46.5133 64.9672 46.32 63.9939 46.32H61.5139V51.12H63.8139ZM75.9734 53.2C75.0268 53.2 74.1868 52.9867 73.4534 52.56C72.7201 52.1333 72.1534 51.5533 71.7534 50.82C71.3534 50.0867 71.1534 49.2733 71.1534 48.38C71.1534 47.5 71.3468 46.6933 71.7334 45.96C72.1334 45.2267 72.7001 44.6467 73.4334 44.22C74.1668 43.7933 75.0134 43.58 75.9734 43.58C76.9334 43.58 77.7734 43.7933 78.4934 44.22C79.2268 44.6467 79.7868 45.2267 80.1734 45.96C80.5734 46.6933 80.7734 47.5 80.7734 48.38C80.7734 49.2733 80.5734 50.0867 80.1734 50.82C79.7734 51.5533 79.2068 52.1333 78.4734 52.56C77.7534 52.9867 76.9201 53.2 75.9734 53.2ZM76.0334 51.44C76.8068 51.44 77.4134 51.1533 77.8534 50.58C78.3068 50.0067 78.5334 49.2867 78.5334 48.42C78.5334 47.5533 78.2934 46.8267 77.8134 46.24C77.3334 45.64 76.7001 45.34 75.9134 45.34C75.1534 45.34 74.5401 45.6333 74.0734 46.22C73.6201 46.8067 73.3934 47.54 73.3934 48.42C73.3934 49.2733 73.6401 49.9933 74.1334 50.58C74.6268 51.1533 75.2601 51.44 76.0334 51.44ZM85.3202 48.24L82.1002 43.82H84.6602L86.5402 46.66L88.3202 43.82H90.9402L87.7002 48.12L91.2202 53H88.7402L86.5602 49.76L84.4802 53H81.8802L85.3202 48.24Z" fill="#E3073C" fill-opacity="0.6"/>
<path d="M10.34 46.14L9.42 44.06L9 46.14L7.64 53H5.42L8.46 38.3H8.7L12.74 46.24L13.94 48.9L15.14 46.24L19.1 38.3H19.32L22.48 53H20.28L18.8 46.14L18.36 44.06L17.56 46.14L14 53H13.88L10.34 46.14ZM27.4906 53.2C26.224 53.2 25.3506 52.8267 24.8706 52.08C24.404 51.3333 24.1706 50.2933 24.1706 48.96V43.82H26.3306V48.42C26.3306 49.18 26.3706 49.7733 26.4506 50.2C26.544 50.6133 26.7173 50.92 26.9706 51.12C27.2373 51.32 27.6306 51.42 28.1506 51.42C28.524 51.42 28.884 51.3133 29.2306 51.1C29.5773 50.8867 29.8573 50.6 30.0706 50.24C30.2973 49.8667 30.4106 49.46 30.4106 49.02V43.82H32.5506V53H30.7906L30.5506 51.66C30.2173 52.18 29.7973 52.5667 29.2906 52.82C28.7973 53.0733 28.1973 53.2 27.4906 53.2ZM38.5839 53.2C37.9439 53.2 37.2772 53.12 36.5839 52.96C35.9039 52.7867 35.4172 52.5867 35.1239 52.36L35.8439 50.66C36.6439 51.22 37.5572 51.5 38.5839 51.5C39.6106 51.5 40.1239 51.2 40.1239 50.6C40.1239 50.3333 40.0172 50.1267 39.8039 49.98C39.5906 49.8333 39.2106 49.66 38.6639 49.46L37.9039 49.18C37.1039 48.86 36.4706 48.48 36.0039 48.04C35.5372 47.5867 35.3039 46.9933 35.3039 46.26C35.3039 45.42 35.6306 44.7667 36.2839 44.3C36.9506 43.82 37.8372 43.58 38.9439 43.58C39.4906 43.58 40.0239 43.64 40.5439 43.76C41.0772 43.88 41.4839 44.0333 41.7639 44.22L40.9839 45.94C40.8106 45.7667 40.5306 45.62 40.1439 45.5C39.7706 45.3667 39.3506 45.3 38.8839 45.3C37.9372 45.3 37.4639 45.5867 37.4639 46.16C37.4639 46.48 37.5906 46.7267 37.8439 46.9C38.0972 47.06 38.5106 47.24 39.0839 47.44C39.1372 47.4533 39.3439 47.5267 39.7039 47.66C40.5572 47.9933 41.1906 48.3733 41.6039 48.8C42.0172 49.2267 42.2239 49.7733 42.2239 50.44C42.2239 51.3467 41.8772 52.0333 41.1839 52.5C40.5039 52.9667 39.6372 53.2 38.5839 53.2ZM44.6269 43.82H46.8669V53H44.6269V43.82ZM45.7269 42.1C45.3135 42.1 44.9669 41.96 44.6869 41.68C44.4069 41.4 44.2669 41.0533 44.2669 40.64C44.2669 40.2667 44.4069 39.9467 44.6869 39.68C44.9669 39.4133 45.3135 39.28 45.7269 39.28C46.1269 39.28 46.4669 39.4133 46.7469 39.68C47.0269 39.9467 47.1669 40.2667 47.1669 40.64C47.1669 41.0533 47.0269 41.4 46.7469 41.68C46.4802 41.96 46.1402 42.1 45.7269 42.1ZM54.1375 53.2C53.2308 53.2 52.4108 53.0067 51.6775 52.62C50.9575 52.22 50.3842 51.6533 49.9575 50.92C49.5308 50.1733 49.3175 49.3 49.3175 48.3C49.3175 47.3533 49.5108 46.5267 49.8975 45.82C50.2975 45.1 50.8508 44.5467 51.5575 44.16C52.2775 43.7733 53.1042 43.58 54.0375 43.58C54.7442 43.58 55.3508 43.6733 55.8575 43.86C56.3775 44.0333 56.7842 44.2533 57.0775 44.52L56.1175 46.26C55.5575 45.7 54.9242 45.42 54.2175 45.42C53.3642 45.42 52.7108 45.68 52.2575 46.2C51.8175 46.72 51.5975 47.4133 51.5975 48.28C51.5975 49.2667 51.8242 50.0333 52.2775 50.58C52.7442 51.1267 53.3908 51.4 54.2175 51.4C54.6308 51.4 55.0308 51.34 55.4175 51.22C55.8175 51.1 56.1242 50.96 56.3375 50.8L57.1175 52.32C56.8242 52.5467 56.4108 52.7533 55.8775 52.94C55.3575 53.1133 54.7775 53.2 54.1375 53.2ZM59.3139 38.3H63.0539C65.1606 38.3 66.5606 38.6533 67.2539 39.36C67.9472 40.0667 68.2939 40.92 68.2939 41.92C68.2939 42.5867 68.1472 43.22 67.8539 43.82C67.5606 44.4067 67.0939 44.8467 66.4539 45.14C67.4006 45.38 68.0939 45.8 68.5339 46.4C68.9872 47 69.2139 47.7067 69.2139 48.52C69.2139 49.3733 69.0806 50.12 68.8139 50.76C68.5472 51.4 67.9939 51.9333 67.1539 52.36C66.3139 52.7867 65.1006 53 63.5139 53H59.3139V38.3ZM63.4139 44.54C64.3606 44.54 65.0339 44.3133 65.4339 43.86C65.8339 43.3933 66.0339 42.8067 66.0339 42.1C66.0339 40.8333 65.1272 40.2 63.3139 40.2H61.5139V44.54H63.4139ZM63.8139 51.12C65.0272 51.12 65.8406 50.88 66.2539 50.4C66.6806 49.9067 66.8939 49.2867 66.8939 48.54C66.8939 47.8333 66.6539 47.2867 66.1739 46.9C65.6939 46.5133 64.9672 46.32 63.9939 46.32H61.5139V51.12H63.8139ZM75.9734 53.2C75.0268 53.2 74.1868 52.9867 73.4534 52.56C72.7201 52.1333 72.1534 51.5533 71.7534 50.82C71.3534 50.0867 71.1534 49.2733 71.1534 48.38C71.1534 47.5 71.3468 46.6933 71.7334 45.96C72.1334 45.2267 72.7001 44.6467 73.4334 44.22C74.1668 43.7933 75.0134 43.58 75.9734 43.58C76.9334 43.58 77.7734 43.7933 78.4934 44.22C79.2268 44.6467 79.7868 45.2267 80.1734 45.96C80.5734 46.6933 80.7734 47.5 80.7734 48.38C80.7734 49.2733 80.5734 50.0867 80.1734 50.82C79.7734 51.5533 79.2068 52.1333 78.4734 52.56C77.7534 52.9867 76.9201 53.2 75.9734 53.2ZM76.0334 51.44C76.8068 51.44 77.4134 51.1533 77.8534 50.58C78.3068 50.0067 78.5334 49.2867 78.5334 48.42C78.5334 47.5533 78.2934 46.8267 77.8134 46.24C77.3334 45.64 76.7001 45.34 75.9134 45.34C75.1534 45.34 74.5401 45.6333 74.0734 46.22C73.6201 46.8067 73.3934 47.54 73.3934 48.42C73.3934 49.2733 73.6401 49.9933 74.1334 50.58C74.6268 51.1533 75.2601 51.44 76.0334 51.44ZM85.3202 48.24L82.1002 43.82H84.6602L86.5402 46.66L88.3202 43.82H90.9402L87.7002 48.12L91.2202 53H88.7402L86.5602 49.76L84.4802 53H81.8802L85.3202 48.24Z" fill="#E98A15" fill-opacity="0.4"/>
<path d="M50.0431 6.90675C47.8534 4.71705 45.2538 2.98003 42.3929 1.79498C39.5319 0.609926 36.4656 0 33.3688 0C30.2721 0 27.2058 0.609926 24.3448 1.79498C21.4838 2.98003 18.8843 4.71705 16.6946 6.90675L33.3688 23.5809L50.0431 6.90675Z" fill="#E3073C"/>
<path d="M33.3897 23.605C35.5794 25.7947 38.1789 27.5316 41.04 28.7167C43.9009 29.9017 46.9673 30.5116 50.064 30.5116C53.1606 30.5116 56.2274 29.9017 59.0882 28.7167C61.9491 27.5316 64.5489 25.7947 66.7384 23.605L50.064 6.9307L33.3897 23.605Z" fill="white"/>
<path d="M66.6513 23.1391C68.841 25.3288 71.4405 27.0657 74.3015 28.2507C77.1624 29.4358 80.2288 30.0457 83.3256 30.0457C86.4221 30.0457 89.4889 29.4358 92.3498 28.2507C95.2106 27.0657 97.8105 25.3288 100 23.1391L83.3256 6.46478L66.6513 23.1391Z" fill="#969696"/>
<path d="M33.3485 23.6013C31.1588 25.791 28.5593 27.5279 25.6983 28.713C22.8373 29.898 19.771 30.508 16.6743 30.508C13.5775 30.508 10.5112 29.898 7.65022 28.713C4.78929 27.5279 2.1897 25.791 0 23.6013L16.6743 6.92703L33.3485 23.6013Z" fill="#969696"/>
<path d="M50.0843 6.91042C52.2737 4.72072 54.8736 2.98378 57.7344 1.79873C60.5953 0.613678 63.6621 0.00375144 66.7584 0.00375144C69.8555 0.00375144 72.9215 0.613678 75.7824 1.79873C78.6432 2.98378 81.243 4.72072 83.4326 6.91042L66.7584 23.5847L50.0843 6.91042Z" fill="#E98A15"/>
</svg>
