<svg width="481" height="423" viewBox="0 0 481 423" fill="none" xmlns="http://www.w3.org/2000/svg">
<path d="M428.425 384.479C433.591 381.305 438.273 377.538 442.215 372.977C471.508 339.079 471.203 291.252 469.189 250.038C466.811 201.389 457.808 152.72 431.783 109.81C406.697 68.4486 368.901 33.3156 321.588 14.5266C308.534 9.34256 294.902 5.44056 280.977 2.88856C255.257 -1.82544 228.561 -0.839442 203.476 6.36056C193.902 9.10856 184.565 12.5496 175.461 16.4336C113.221 42.9806 104.575 97.6835 80.3708 152.387C63.2378 191.108 22.9418 216.413 5.85077 255.19C-13.2892 298.618 17.3848 346.071 56.5238 369.376C65.4808 374.709 75.0728 379.108 85.0158 382.606C178.025 415.326 282.933 425.363 379.749 401.547C396.041 397.538 414.096 393.284 428.425 384.479Z" fill="#E98A15"/>
<path opacity="0.7" d="M428.425 384.479C433.591 381.305 438.273 377.538 442.215 372.977C471.508 339.079 471.203 291.252 469.189 250.038C466.811 201.389 457.808 152.72 431.783 109.81C406.697 68.4486 368.901 33.3156 321.588 14.5266C308.534 9.34256 294.902 5.44056 280.977 2.88856C255.257 -1.82544 228.561 -0.839442 203.476 6.36056C193.902 9.10856 184.565 12.5496 175.461 16.4336C113.221 42.9806 104.575 97.6835 80.3708 152.387C63.2378 191.108 22.9418 216.413 5.85077 255.19C-13.2892 298.618 17.3848 346.071 56.5238 369.376C65.4808 374.709 75.0728 379.108 85.0158 382.606C178.025 415.326 282.933 425.363 379.749 401.547C396.041 397.538 414.096 393.284 428.425 384.479Z" fill="white"/>
<path d="M28.666 236.782L42.59 370.205" stroke="#263238" stroke-width="2" stroke-miterlimit="10"/>
<path d="M40.3462 344.671L34.0332 338.004" stroke="#263238" stroke-width="2" stroke-miterlimit="10"/>
<path d="M35.9507 340.001C35.9507 340.001 36.1317 337.052 33.4387 334.647C31.8187 333.2 23.2907 329.613 22.4817 332.616C21.6017 335.883 30.3297 342.297 35.9507 340.001Z" fill="#E98A15" stroke="#263238" stroke-miterlimit="10"/>
<path d="M35.95 340.001L27.832 334.943" stroke="#263238" stroke-width="0.5" stroke-miterlimit="10"/>
<path d="M41.9292 359.845L35.6172 353.178" stroke="#263238" stroke-width="2" stroke-miterlimit="10"/>
<path d="M37.5346 355.176C37.5346 355.176 37.7156 352.227 35.0226 349.822C33.4026 348.375 24.8746 344.788 24.0656 347.791C23.1856 351.056 31.9136 357.472 37.5346 355.176Z" fill="#E3073C" stroke="#263238" stroke-miterlimit="10"/>
<path d="M37.534 355.176L29.416 350.117" stroke="#263238" stroke-width="0.5" stroke-miterlimit="10"/>
<path d="M36.4829 307.644L30.1699 300.976" stroke="#263238" stroke-width="2" stroke-miterlimit="10"/>
<path d="M32.0874 302.974C32.0874 302.974 32.2684 300.025 29.5754 297.62C27.9554 296.173 19.4274 292.586 18.6184 295.589C17.7384 298.855 26.4664 305.27 32.0874 302.974Z" fill="#E98A15" stroke="#263238" stroke-miterlimit="10"/>
<path d="M32.0868 302.974L23.9688 297.915" stroke="#263238" stroke-width="0.5" stroke-miterlimit="10"/>
<path d="M38.0659 322.818L31.7539 316.15" stroke="#263238" stroke-width="2" stroke-miterlimit="10"/>
<path d="M33.6715 318.148C33.6715 318.148 33.8525 315.199 31.1595 312.793C29.5395 311.346 21.0115 307.759 20.2025 310.762C19.3215 314.029 28.0505 320.444 33.6715 318.148Z" fill="#E3073C" stroke="#263238" stroke-miterlimit="10"/>
<path d="M33.6707 318.148L25.5527 313.089" stroke="#263238" stroke-width="0.5" stroke-miterlimit="10"/>
<path d="M33.9097 282.994L27.5977 276.327" stroke="#263238" stroke-width="2" stroke-miterlimit="10"/>
<path d="M29.5152 278.325C29.5152 278.325 29.6962 275.376 27.0032 272.971C25.3832 271.524 16.8552 267.937 16.0462 270.94C15.1652 274.206 23.8932 280.621 29.5152 278.325Z" fill="#E98A15" stroke="#263238" stroke-miterlimit="10"/>
<path d="M29.5145 278.325L21.3965 273.266" stroke="#263238" stroke-width="0.5" stroke-miterlimit="10"/>
<path d="M31.3257 258.238L25.0137 251.57" stroke="#263238" stroke-width="2" stroke-miterlimit="10"/>
<path d="M26.9311 253.568C26.9311 253.568 27.1121 250.619 24.4191 248.214C22.7991 246.767 14.2711 243.18 13.4621 246.183C12.5821 249.449 21.3101 255.864 26.9311 253.568Z" fill="#E3073C" stroke="#263238" stroke-miterlimit="10"/>
<path d="M26.9305 253.568L18.8125 248.509" stroke="#263238" stroke-width="0.5" stroke-miterlimit="10"/>
<path d="M39.2852 335.693L44.0852 327.866" stroke="#263238" stroke-width="2" stroke-miterlimit="10"/>
<path d="M42.6215 330.217C42.6215 330.217 41.8355 327.369 43.9745 324.459C45.2615 322.709 52.8635 317.438 54.2755 320.209C55.8105 323.224 48.5955 331.303 42.6215 330.217Z" fill="#E98A15" stroke="#263238" stroke-miterlimit="10"/>
<path d="M42.6211 330.217L49.9301 323.23" stroke="#263238" stroke-width="0.5" stroke-miterlimit="10"/>
<path d="M35.1172 295.762L39.9172 287.935" stroke="#263238" stroke-width="2" stroke-miterlimit="10"/>
<path d="M38.4516 290.286C38.4516 290.286 37.6656 287.438 39.8046 284.528C41.0916 282.777 48.6936 277.507 50.1056 280.278C51.6416 283.293 44.4266 291.372 38.4516 290.286Z" fill="#E3073C" stroke="#263238" stroke-miterlimit="10"/>
<path d="M38.4531 290.286L45.7631 283.299" stroke="#263238" stroke-width="0.5" stroke-miterlimit="10"/>
<path d="M33.2852 278.214L38.0852 270.387" stroke="#263238" stroke-width="2" stroke-miterlimit="10"/>
<path d="M36.6215 272.738C36.6215 272.738 35.8355 269.89 37.9745 266.98C39.2605 265.23 46.8635 259.959 48.2755 262.73C49.8115 265.745 42.5955 273.824 36.6215 272.738Z" fill="#E98A15" stroke="#263238" stroke-miterlimit="10"/>
<path d="M36.6211 272.738L43.9311 265.751" stroke="#263238" stroke-width="0.5" stroke-miterlimit="10"/>
<path d="M30.6016 252.489L35.4006 244.662" stroke="#263238" stroke-width="2" stroke-miterlimit="10"/>
<path d="M33.936 247.012C33.936 247.012 33.15 244.163 35.289 241.254C36.576 239.504 44.178 234.233 45.59 237.005C47.126 240.019 39.911 248.098 33.936 247.012Z" fill="#E98A15" stroke="#263238" stroke-miterlimit="10"/>
<path d="M33.9355 247.012L41.2455 240.025" stroke="#263238" stroke-width="0.5" stroke-miterlimit="10"/>
<path d="M28.5492 236.041C28.5492 236.041 27.7632 233.193 29.9022 230.283C31.1882 228.533 38.7912 223.262 40.2032 226.033C41.7382 229.047 34.5232 237.127 28.5492 236.041Z" fill="#E98A15" stroke="#263238" stroke-miterlimit="10"/>
<path d="M28.5488 236.041L35.8588 229.054" stroke="#263238" stroke-width="0.5" stroke-miterlimit="10"/>
<path d="M28.9715 236.342C28.9715 236.342 26.0565 236.825 23.3875 234.393C21.7815 232.93 17.3375 224.816 20.2415 223.703C23.4005 222.492 30.6785 230.515 28.9715 236.342Z" fill="#E98A15" stroke="#263238" stroke-miterlimit="10"/>
<path d="M28.9711 236.342L22.7891 228.34" stroke="#263238" stroke-width="0.5" stroke-miterlimit="10"/>
<path d="M65.3909 255.156L51.5449 388.588" stroke="#263238" stroke-width="2" stroke-miterlimit="10"/>
<path d="M54.6067 363.139L49.8027 355.315" stroke="#263238" stroke-width="2" stroke-miterlimit="10"/>
<path d="M51.2673 357.665C51.2673 357.665 52.0513 354.816 49.9113 351.908C48.6233 350.158 41.0173 344.892 39.6073 347.664C38.0733 350.679 45.2943 358.754 51.2673 357.665Z" fill="#E98A15" stroke="#263238" stroke-miterlimit="10"/>
<path d="M51.2672 357.665L44.3652 351.043" stroke="#263238" stroke-width="0.5" stroke-miterlimit="10"/>
<path d="M58.4485 326.109L53.6445 318.285" stroke="#263238" stroke-width="2" stroke-miterlimit="10"/>
<path d="M55.1111 320.635C55.1111 320.635 55.8951 317.786 53.7551 314.878C52.4671 313.128 44.8611 307.862 43.4511 310.634C41.9171 313.649 49.1371 321.724 55.1111 320.635Z" fill="#E98A15" stroke="#263238" stroke-miterlimit="10"/>
<path d="M55.112 320.635L48.209 314.013" stroke="#263238" stroke-width="0.5" stroke-miterlimit="10"/>
<path d="M56.8734 341.284L52.0684 333.46" stroke="#263238" stroke-width="2" stroke-miterlimit="10"/>
<path d="M53.5349 335.81C53.5349 335.81 54.3189 332.961 52.1789 330.053C50.8909 328.303 43.2849 323.037 41.8749 325.809C40.3409 328.824 47.5609 336.899 53.5349 335.81Z" fill="#E98A15" stroke="#263238" stroke-miterlimit="10"/>
<path d="M53.5358 335.81L46.6328 329.188" stroke="#263238" stroke-width="0.5" stroke-miterlimit="10"/>
<path d="M61.0052 301.458L56.2012 293.634" stroke="#263238" stroke-width="2" stroke-miterlimit="10"/>
<path d="M57.6677 295.984C57.6677 295.984 58.4517 293.135 56.3117 290.227C55.0237 288.477 47.4177 283.211 46.0077 285.983C44.4737 288.999 51.6937 297.073 57.6677 295.984Z" fill="#E98A15" stroke="#263238" stroke-miterlimit="10"/>
<path d="M57.6686 295.984L50.7656 289.362" stroke="#263238" stroke-width="0.5" stroke-miterlimit="10"/>
<path d="M63.5755 276.7L58.7715 268.876" stroke="#263238" stroke-width="2" stroke-miterlimit="10"/>
<path d="M60.238 271.226C60.238 271.226 61.022 268.377 58.882 265.469C57.594 263.719 49.988 258.453 48.578 261.225C47.044 264.24 54.264 272.315 60.238 271.226Z" fill="#E98A15" stroke="#263238" stroke-miterlimit="10"/>
<path d="M60.2389 271.226L53.3359 264.604" stroke="#263238" stroke-width="0.5" stroke-miterlimit="10"/>
<path d="M55.416 354.135L61.725 347.464" stroke="#263238" stroke-width="2" stroke-miterlimit="10"/>
<path d="M59.8073 349.463C59.8073 349.463 59.6243 346.514 62.3163 344.107C63.9353 342.659 72.4613 339.067 73.2713 342.069C74.1543 345.335 65.4303 351.755 59.8073 349.463Z" fill="#E98A15" stroke="#263238" stroke-miterlimit="10"/>
<path d="M59.8086 349.463L68.4006 344.13" stroke="#263238" stroke-width="0.5" stroke-miterlimit="10"/>
<path d="M59.5605 314.202L65.8695 307.53" stroke="#263238" stroke-width="2" stroke-miterlimit="10"/>
<path d="M63.9518 309.529C63.9518 309.529 63.7698 306.58 66.4608 304.173C68.0798 302.725 76.6058 299.133 77.4168 302.135C78.2988 305.402 69.5738 311.822 63.9518 309.529Z" fill="#E98A15" stroke="#263238" stroke-miterlimit="10"/>
<path d="M63.9531 309.529L72.5451 304.197" stroke="#263238" stroke-width="0.5" stroke-miterlimit="10"/>
<path d="M61.3809 296.652L67.6899 289.982" stroke="#263238" stroke-width="2" stroke-miterlimit="10"/>
<path d="M65.7721 291.98C65.7721 291.98 65.5901 289.031 68.2811 286.624C69.9001 285.176 78.4261 281.584 79.2371 284.586C80.1191 287.853 71.3941 294.273 65.7721 291.98Z" fill="#E98A15" stroke="#263238" stroke-miterlimit="10"/>
<path d="M65.7734 291.98L74.3654 286.648" stroke="#263238" stroke-width="0.5" stroke-miterlimit="10"/>
<path d="M64.0508 270.925L70.3588 264.254" stroke="#263238" stroke-width="2" stroke-miterlimit="10"/>
<path d="M68.442 266.253C68.442 266.253 68.26 263.304 70.951 260.897C72.57 259.449 81.096 255.857 81.907 258.859C82.788 262.125 74.064 268.546 68.442 266.253Z" fill="#E98A15" stroke="#263238" stroke-miterlimit="10"/>
<path d="M68.4434 266.253L77.0344 260.921" stroke="#263238" stroke-width="0.5" stroke-miterlimit="10"/>
<path d="M65.4284 254.407C65.4284 254.407 65.2464 251.458 67.9374 249.051C69.5564 247.603 78.0824 244.011 78.8934 247.014C79.7754 250.28 71.0514 256.7 65.4284 254.407Z" fill="#E3073C" stroke="#263238" stroke-miterlimit="10"/>
<path d="M65.4277 254.407L74.0197 249.075" stroke="#263238" stroke-width="0.5" stroke-miterlimit="10"/>
<path d="M65.7807 254.789C65.7807 254.789 62.8286 254.661 60.7176 251.732C59.4476 249.97 56.7686 241.115 59.8396 240.623C63.1806 240.089 68.6507 249.438 65.7807 254.789Z" fill="#E98A15" stroke="#263238" stroke-miterlimit="10"/>
<path d="M65.7809 254.789L61.3789 245.685" stroke="#263238" stroke-width="0.5" stroke-miterlimit="10"/>
<path d="M49.5254 200.823V369.555" stroke="#263238" stroke-width="2" stroke-miterlimit="10"/>
<path d="M49.6583 344.185L44.0723 336.898" stroke="#263238" stroke-width="2" stroke-miterlimit="10"/>
<path d="M45.7728 339.084C45.7728 339.084 46.2588 336.169 43.8298 333.498C42.3688 331.891 34.2598 327.438 33.1428 330.341C31.9288 333.498 39.9438 340.784 45.7728 339.084Z" fill="#E98A15" stroke="#263238" stroke-miterlimit="10"/>
<path d="M45.7736 339.084L38.2246 333.21" stroke="#263238" stroke-width="0.5" stroke-miterlimit="10"/>
<path d="M49.6583 312.475L44.0723 305.189" stroke="#263238" stroke-width="2" stroke-miterlimit="10"/>
<path d="M45.7728 307.375C45.7728 307.375 46.2588 304.46 43.8298 301.789C42.3688 300.182 34.2598 295.729 33.1428 298.631C31.9288 301.789 39.9438 309.075 45.7728 307.375Z" fill="#E98A15" stroke="#263238" stroke-miterlimit="10"/>
<path d="M45.7736 307.375L38.2246 301.501" stroke="#263238" stroke-width="0.5" stroke-miterlimit="10"/>
<path d="M49.6583 275.247L44.0723 267.961" stroke="#263238" stroke-width="2" stroke-miterlimit="10"/>
<path d="M45.7728 270.146C45.7728 270.146 46.2588 267.231 43.8298 264.56C42.3688 262.953 34.2598 258.5 33.1428 261.402C31.9288 264.56 39.9438 271.847 45.7728 270.146Z" fill="#E98A15" stroke="#263238" stroke-miterlimit="10"/>
<path d="M45.7736 270.146L38.2246 264.272" stroke="#263238" stroke-width="0.5" stroke-miterlimit="10"/>
<path d="M49.6583 250.464L44.0723 243.177" stroke="#263238" stroke-width="2" stroke-miterlimit="10"/>
<path d="M45.7728 245.363C45.7728 245.363 46.2588 242.448 43.8298 239.777C42.3688 238.17 34.2598 233.716 33.1428 236.619C31.9288 239.777 39.9438 247.064 45.7728 245.363Z" fill="#E98A15" stroke="#263238" stroke-miterlimit="10"/>
<path d="M45.7736 245.363L38.2246 239.489" stroke="#263238" stroke-width="0.5" stroke-miterlimit="10"/>
<path d="M49.6583 225.573L44.0723 218.286" stroke="#263238" stroke-width="2" stroke-miterlimit="10"/>
<path d="M45.7728 220.472C45.7728 220.472 46.2588 217.557 43.8298 214.886C42.3688 213.279 34.2598 208.825 33.1428 211.728C31.9288 214.886 39.9438 222.172 45.7728 220.472Z" fill="#E3073C" stroke="#263238" stroke-miterlimit="10"/>
<path d="M45.7736 220.472L38.2246 214.598" stroke="#263238" stroke-width="0.5" stroke-miterlimit="10"/>
<path d="M49.5352 353.868L55.1212 346.581" stroke="#263238" stroke-width="2" stroke-miterlimit="10"/>
<path d="M53.4206 348.767C53.4206 348.767 52.9346 345.852 55.3636 343.181C56.8246 341.573 64.9336 337.12 66.0506 340.024C67.2646 343.181 59.2496 350.467 53.4206 348.767Z" fill="#E3073C" stroke="#263238" stroke-miterlimit="10"/>
<path d="M53.4219 348.767L61.4179 342.577" stroke="#263238" stroke-width="0.5" stroke-miterlimit="10"/>
<path d="M49.5352 303.436L55.1212 296.149" stroke="#263238" stroke-width="2" stroke-miterlimit="10"/>
<path d="M53.4206 298.335C53.4206 298.335 52.9346 295.42 55.3636 292.749C56.8246 291.142 64.9336 286.689 66.0506 289.592C67.2646 292.749 59.2496 300.035 53.4206 298.335Z" fill="#E3073C" stroke="#263238" stroke-miterlimit="10"/>
<path d="M53.4219 298.335L61.4179 292.145" stroke="#263238" stroke-width="0.5" stroke-miterlimit="10"/>
<path d="M49.5352 278.545L55.1212 271.258" stroke="#263238" stroke-width="2" stroke-miterlimit="10"/>
<path d="M53.4206 273.444C53.4206 273.444 52.9346 270.529 55.3636 267.858C56.8246 266.251 64.9336 261.797 66.0506 264.7C67.2646 267.858 59.2496 275.144 53.4206 273.444Z" fill="#E98A15" stroke="#263238" stroke-miterlimit="10"/>
<path d="M53.4219 273.444L61.4179 267.254" stroke="#263238" stroke-width="0.5" stroke-miterlimit="10"/>
<path d="M49.5352 245.645L55.1212 238.358" stroke="#263238" stroke-width="2" stroke-miterlimit="10"/>
<path d="M53.4206 240.544C53.4206 240.544 52.9346 237.629 55.3636 234.958C56.8246 233.35 64.9336 228.898 66.0506 231.8C67.2646 234.958 59.2496 242.245 53.4206 240.544Z" fill="#E3073C" stroke="#263238" stroke-miterlimit="10"/>
<path d="M53.4219 240.544L61.4179 234.354" stroke="#263238" stroke-width="0.5" stroke-miterlimit="10"/>
<path d="M49.5352 219.78L55.1212 212.493" stroke="#263238" stroke-width="2" stroke-miterlimit="10"/>
<path d="M53.4206 214.679C53.4206 214.679 52.9346 211.764 55.3636 209.093C56.8246 207.486 64.9336 203.032 66.0506 205.935C67.2646 209.093 59.2496 216.379 53.4206 214.679Z" fill="#E98A15" stroke="#263238" stroke-miterlimit="10"/>
<path d="M53.4219 214.679L61.4179 208.489" stroke="#263238" stroke-width="0.5" stroke-miterlimit="10"/>
<path d="M49.1999 203.207C49.1999 203.207 48.7139 200.292 51.1429 197.621C52.6039 196.014 60.7129 191.56 61.8299 194.464C63.0449 197.621 55.0299 204.908 49.1999 203.207Z" fill="#E98A15" stroke="#263238" stroke-miterlimit="10"/>
<path d="M49.2012 203.207L57.1972 197.017" stroke="#263238" stroke-width="0.5" stroke-miterlimit="10"/>
<path d="M49.5903 203.551C49.5903 203.551 46.6403 203.729 44.2383 201.033C42.7933 199.411 39.2153 190.88 42.2193 190.074C45.4873 189.197 51.8923 197.932 49.5903 203.551Z" fill="#E98A15" stroke="#263238" stroke-miterlimit="10"/>
<path d="M49.5904 203.551L44.2734 194.95" stroke="#263238" stroke-width="0.5" stroke-miterlimit="10"/>
<path d="M56.4663 413.318H38.5973L36.3633 368.188H58.7003L56.4663 413.318Z" fill="#263238" stroke="#263238" stroke-miterlimit="10"/>
<g opacity="0.3">
<path d="M193.889 41.9515H111.264V161.096H193.889V41.9515Z" stroke="#E98A15" stroke-width="2" stroke-miterlimit="10"/>
<path d="M193.889 41.9515H111.264V161.096H193.889V41.9515Z" stroke="black" stroke-opacity="0.1" stroke-width="2" stroke-miterlimit="10"/>
<path d="M193.889 62.7195V161.096H111.264V158.454C118.272 156.17 128.161 151.923 137.564 144.281C154.709 130.356 150.957 120.705 161.672 92.8545C170.038 71.0855 184.954 64.3615 193.889 62.7195Z" stroke="#E98A15" stroke-width="2" stroke-miterlimit="10"/>
<path d="M193.889 62.7195V161.096H111.264V158.454C118.272 156.17 128.161 151.923 137.564 144.281C154.709 130.356 150.957 120.705 161.672 92.8545C170.038 71.0855 184.954 64.3615 193.889 62.7195Z" stroke="black" stroke-opacity="0.1" stroke-width="2" stroke-miterlimit="10"/>
<path d="M145.987 41.9515C145.675 55.0785 141.006 81.6445 111.266 101.441V41.9515H145.987Z" stroke="#E98A15" stroke-width="2" stroke-miterlimit="10"/>
<path d="M145.987 41.9515C145.675 55.0785 141.006 81.6445 111.266 101.441V41.9515H145.987Z" stroke="black" stroke-opacity="0.1" stroke-width="2" stroke-miterlimit="10"/>
<path d="M185.458 41.9515C180.77 51.9685 172.368 64.4535 159.534 64.4535C146.233 64.4535 149.856 51.6655 154.516 41.9515H185.458Z" stroke="#E98A15" stroke-width="2" stroke-miterlimit="10"/>
<path d="M185.458 41.9515C180.77 51.9685 172.368 64.4535 159.534 64.4535C146.233 64.4535 149.856 51.6655 154.516 41.9515H185.458Z" stroke="black" stroke-opacity="0.1" stroke-width="2" stroke-miterlimit="10"/>
<path d="M138.302 119.792C139.867 113.473 136.014 107.082 129.696 105.516C123.377 103.951 116.986 107.804 115.42 114.122C113.855 120.441 117.708 126.832 124.027 128.398C130.345 129.963 136.736 126.11 138.302 119.792Z" stroke="#E98A15" stroke-width="2" stroke-miterlimit="10"/>
<path d="M138.302 119.792C139.867 113.473 136.014 107.082 129.696 105.516C123.377 103.951 116.986 107.804 115.42 114.122C113.855 120.441 117.708 126.832 124.027 128.398C130.345 129.963 136.736 126.11 138.302 119.792Z" stroke="black" stroke-opacity="0.1" stroke-width="2" stroke-miterlimit="10"/>
<path d="M184.71 104.637C184.71 107.596 182.312 109.994 179.353 109.994C176.394 109.994 173.996 107.595 173.996 104.637C173.996 101.678 176.395 99.2795 179.353 99.2795C182.311 99.2795 184.71 101.678 184.71 104.637Z" stroke="#E98A15" stroke-width="2" stroke-miterlimit="10"/>
<path d="M184.71 104.637C184.71 107.596 182.312 109.994 179.353 109.994C176.394 109.994 173.996 107.595 173.996 104.637C173.996 101.678 176.395 99.2795 179.353 99.2795C182.311 99.2795 184.71 101.678 184.71 104.637Z" stroke="black" stroke-opacity="0.1" stroke-width="2" stroke-miterlimit="10"/>
<path d="M171.048 148.031C173.859 148.031 176.137 145.752 176.137 142.942C176.137 140.131 173.859 137.853 171.048 137.853C168.237 137.853 165.959 140.131 165.959 142.942C165.959 145.752 168.237 148.031 171.048 148.031Z" stroke="#E98A15" stroke-width="2" stroke-miterlimit="10"/>
<path d="M171.048 148.031C173.859 148.031 176.137 145.752 176.137 142.942C176.137 140.131 173.859 137.853 171.048 137.853C168.237 137.853 165.959 140.131 165.959 142.942C165.959 145.752 168.237 148.031 171.048 148.031Z" stroke="black" stroke-opacity="0.1" stroke-width="2" stroke-miterlimit="10"/>
<path d="M298.896 41.9515H216.262V161.096H298.896V41.9515Z" stroke="#E98A15" stroke-width="2" stroke-miterlimit="10"/>
<path d="M298.896 41.9515H216.262V161.096H298.896V41.9515Z" stroke="black" stroke-opacity="0.1" stroke-width="2" stroke-miterlimit="10"/>
<path d="M298.895 41.9515V139.603C280.732 130.209 251.028 101.029 239.35 74.0955C231.91 56.9135 224.003 47.2355 218.26 41.9515H298.895Z" stroke="#E98A15" stroke-width="2" stroke-miterlimit="10"/>
<path d="M298.895 41.9515V139.603C280.732 130.209 251.028 101.029 239.35 74.0955C231.91 56.9135 224.003 47.2355 218.26 41.9515H298.895Z" stroke="black" stroke-opacity="0.1" stroke-width="2" stroke-miterlimit="10"/>
<path d="M298.896 152.216V161.096H216.262V157.693C232.013 147.226 256.34 133.796 272.568 137.851C283.017 140.456 291.961 146.253 298.896 152.216Z" stroke="#E98A15" stroke-width="2" stroke-miterlimit="10"/>
<path d="M298.896 152.216V161.096H216.262V157.693C232.013 147.226 256.34 133.796 272.568 137.851C283.017 140.456 291.961 146.253 298.896 152.216Z" stroke="black" stroke-opacity="0.1" stroke-width="2" stroke-miterlimit="10"/>
<path d="M238.287 114.816C235.517 125.53 224.05 132.456 216.262 136.016V73.9116C226.555 85.3416 241.104 103.9 238.287 114.816Z" stroke="#E98A15" stroke-width="2" stroke-miterlimit="10"/>
<path d="M238.287 114.816C235.517 125.53 224.05 132.456 216.262 136.016V73.9116C226.555 85.3416 241.104 103.9 238.287 114.816Z" stroke="black" stroke-opacity="0.1" stroke-width="2" stroke-miterlimit="10"/>
<path d="M263.605 41.9515H298.895V69.5175C280.869 65.6915 268.751 49.9965 263.605 41.9515Z" stroke="#E98A15" stroke-width="2" stroke-miterlimit="10"/>
<path d="M263.605 41.9515H298.895V69.5175C280.869 65.6915 268.751 49.9965 263.605 41.9515Z" stroke="black" stroke-opacity="0.1" stroke-width="2" stroke-miterlimit="10"/>
<path d="M279.153 76.7615C283.747 83.8325 282.845 92.5705 277.138 96.2785C271.431 99.9855 263.081 97.2585 258.487 90.1875C253.893 83.1165 254.795 74.3785 260.502 70.6705C266.209 66.9635 274.559 69.6905 279.153 76.7615Z" stroke="#E98A15" stroke-width="2" stroke-miterlimit="10"/>
<path d="M279.153 76.7615C283.747 83.8325 282.845 92.5705 277.138 96.2785C271.431 99.9855 263.081 97.2585 258.487 90.1875C253.893 83.1165 254.795 74.3785 260.502 70.6705C266.209 66.9635 274.559 69.6905 279.153 76.7615Z" stroke="black" stroke-opacity="0.1" stroke-width="2" stroke-miterlimit="10"/>
<path d="M403.896 41.9515H321.271V161.096H403.896V41.9515Z" stroke="#E98A15" stroke-width="2" stroke-miterlimit="10"/>
<path d="M403.896 41.9515H321.271V161.096H403.896V41.9515Z" stroke="black" stroke-opacity="0.1" stroke-width="2" stroke-miterlimit="10"/>
<path d="M403.896 101.835V161.095H321.271V154.288C325.922 147.821 335.949 140.207 357.223 134.639C375.532 129.842 391.456 116.265 403.896 101.835Z" stroke="#E98A15" stroke-width="2" stroke-miterlimit="10"/>
<path d="M403.896 101.835V161.095H321.271V154.288C325.922 147.821 335.949 140.207 357.223 134.639C375.532 129.842 391.456 116.265 403.896 101.835Z" stroke="black" stroke-opacity="0.1" stroke-width="2" stroke-miterlimit="10"/>
<path d="M359.359 108.927C342.828 120.146 329.711 130.383 321.271 137.319V73.8295C335.471 62.6105 360.084 41.1175 374.899 47.8505C392.576 55.8855 389.365 88.5615 359.359 108.927Z" stroke="#E98A15" stroke-width="2" stroke-miterlimit="10"/>
<path d="M359.359 108.927C342.828 120.146 329.711 130.383 321.271 137.319V73.8295C335.471 62.6105 360.084 41.1175 374.899 47.8505C392.576 55.8855 389.365 88.5615 359.359 108.927Z" stroke="black" stroke-opacity="0.1" stroke-width="2" stroke-miterlimit="10"/>
<path d="M403.896 41.9515V60.6745C397.52 57.0785 392.97 49.2355 389.934 41.9515H403.896Z" stroke="#E98A15" stroke-width="2" stroke-miterlimit="10"/>
<path d="M403.896 41.9515V60.6745C397.52 57.0785 392.97 49.2355 389.934 41.9515H403.896Z" stroke="black" stroke-opacity="0.1" stroke-width="2" stroke-miterlimit="10"/>
<path d="M363.646 76.2415C367.789 76.2415 371.146 72.8837 371.146 68.7415C371.146 64.5994 367.789 61.2415 363.646 61.2415C359.504 61.2415 356.146 64.5994 356.146 68.7415C356.146 72.8837 359.504 76.2415 363.646 76.2415Z" stroke="#E98A15" stroke-width="2" stroke-miterlimit="10"/>
<path d="M363.646 76.2415C367.789 76.2415 371.146 72.8837 371.146 68.7415C371.146 64.5994 367.789 61.2415 363.646 61.2415C359.504 61.2415 356.146 64.5994 356.146 68.7415C356.146 72.8837 359.504 76.2415 363.646 76.2415Z" stroke="black" stroke-opacity="0.1" stroke-width="2" stroke-miterlimit="10"/>
<path d="M393.648 150.71C397.791 150.71 401.148 147.352 401.148 143.21C401.148 139.067 397.791 135.71 393.648 135.71C389.506 135.71 386.148 139.067 386.148 143.21C386.148 147.352 389.506 150.71 393.648 150.71Z" stroke="#E98A15" stroke-width="2" stroke-miterlimit="10"/>
<path d="M393.648 150.71C397.791 150.71 401.148 147.352 401.148 143.21C401.148 139.067 397.791 135.71 393.648 135.71C389.506 135.71 386.148 139.067 386.148 143.21C386.148 147.352 389.506 150.71 393.648 150.71Z" stroke="black" stroke-opacity="0.1" stroke-width="2" stroke-miterlimit="10"/>
<path d="M382.933 111.066C382.933 114.025 380.535 116.423 377.576 116.423C374.617 116.423 372.219 114.024 372.219 111.066C372.219 108.107 374.618 105.709 377.576 105.709C380.534 105.709 382.933 108.107 382.933 111.066Z" stroke="#E98A15" stroke-width="2" stroke-miterlimit="10"/>
<path d="M382.933 111.066C382.933 114.025 380.535 116.423 377.576 116.423C374.617 116.423 372.219 114.024 372.219 111.066C372.219 108.107 374.618 105.709 377.576 105.709C380.534 105.709 382.933 108.107 382.933 111.066Z" stroke="black" stroke-opacity="0.1" stroke-width="2" stroke-miterlimit="10"/>
<path d="M336.057 109.994C338.276 109.994 340.075 108.195 340.075 105.976C340.075 103.756 338.276 101.958 336.057 101.958C333.838 101.958 332.039 103.756 332.039 105.976C332.039 108.195 333.838 109.994 336.057 109.994Z" stroke="#E98A15" stroke-width="2" stroke-miterlimit="10"/>
<path d="M336.057 109.994C338.276 109.994 340.075 108.195 340.075 105.976C340.075 103.756 338.276 101.958 336.057 101.958C333.838 101.958 332.039 103.756 332.039 105.976C332.039 108.195 333.838 109.994 336.057 109.994Z" stroke="black" stroke-opacity="0.1" stroke-width="2" stroke-miterlimit="10"/>
</g>
<path d="M297.461 348.717H214.024C207.581 348.717 202.357 343.494 202.357 337.05V259.236C202.357 252.793 207.58 247.569 214.024 247.569H297.461C303.904 247.569 309.128 252.792 309.128 259.236V337.05C309.128 343.494 303.905 348.717 297.461 348.717Z" fill="white" stroke="#263238" stroke-miterlimit="10"/>
<path d="M190.708 348.717H107.271C100.828 348.717 95.6035 343.494 95.6035 337.05V259.236C95.6035 252.793 100.827 247.569 107.271 247.569H190.707C197.15 247.569 202.374 252.792 202.374 259.236V337.05C202.374 343.494 197.151 348.717 190.708 348.717Z" fill="white" stroke="#263238" stroke-miterlimit="10"/>
<path d="M156.204 291.856C156.204 291.856 117.045 302.659 110.293 306.034C103.541 309.409 98.1403 312.111 100.841 314.136C103.542 316.162 118.395 331.69 130.548 337.092C142.701 342.493 162.956 337.092 182.535 338.442C202.115 339.792 212.242 337.092 212.242 335.066C212.242 333.041 204.14 316.837 191.312 307.384C178.484 297.932 163.63 291.18 163.63 291.18C163.63 291.18 157.554 286.455 156.204 291.856Z" fill="#B49167" stroke="#263238" stroke-miterlimit="10"/>
<path d="M98.7754 291.175L104.718 336.13H96.7734L98.7754 291.175Z" fill="#263238" stroke="#263238" stroke-miterlimit="10"/>
<path d="M404.233 348.717H320.796C314.353 348.717 309.129 343.494 309.129 337.05V259.236C309.129 252.793 314.352 247.569 320.796 247.569H404.233C410.676 247.569 415.9 252.792 415.9 259.236V337.05C415.9 343.494 410.677 348.717 404.233 348.717Z" fill="white" stroke="#263238" stroke-miterlimit="10"/>
<path d="M413.957 287.499C413.957 287.499 396.415 284.492 387.394 282.487C378.372 280.482 361.332 279.48 361.332 279.48C361.332 279.48 357.824 280.482 358.325 282.487C358.826 284.492 358.826 288.501 358.826 288.501C358.826 288.501 354.315 304.539 349.804 314.563C345.293 324.587 341.785 331.604 341.785 331.604C341.785 331.604 335.269 334.11 339.279 336.115C343.289 338.12 353.814 338.12 353.814 338.12H416.965L417.967 294.516L413.957 287.499Z" fill="#B49167" stroke="#263238" stroke-miterlimit="10"/>
<path d="M93.1895 412.292H418.989V345.531H96.1625L93.1895 412.292Z" fill="white" stroke="#263238" stroke-miterlimit="10"/>
<path d="M91.1536 357.421C91.1536 357.421 173.99 356.468 204.067 356.468C234.144 356.468 289.861 357.739 303.667 357.739C317.473 357.739 413.621 358.352 413.621 358.352L413.785 352.713L89.1816 350.43L91.1536 357.421Z" fill="#263238" stroke="#263238" stroke-miterlimit="10"/>
<path d="M90.0596 354.292C90.0596 354.292 322.383 356.283 336.594 356.283C350.805 356.283 413.211 355.219 413.211 355.219V336.503C413.211 336.503 251.944 338.364 245.765 338.364C239.586 338.364 110.449 334.382 105.506 333.984C100.563 333.586 90.0586 333.984 90.0586 333.984L90.0596 354.292Z" fill="white" stroke="#263238" stroke-miterlimit="10"/>
<path d="M435.087 413.487H419.221C415.355 413.487 412.221 410.353 412.221 406.487V293.993C412.221 290.127 415.355 286.993 419.221 286.993H435.087C438.953 286.993 442.087 290.127 442.087 293.993V406.487C442.087 410.353 438.953 413.487 435.087 413.487Z" fill="white" stroke="#263238" stroke-miterlimit="10"/>
<path d="M91.7762 413.487H75.9102C72.0442 413.487 68.9102 410.353 68.9102 406.487V293.993C68.9102 290.127 72.0442 286.993 75.9102 286.993H91.7762C95.6422 286.993 98.7762 290.127 98.7762 293.993V406.487C98.7762 410.353 95.6432 413.487 91.7762 413.487Z" fill="white" stroke="#263238" stroke-miterlimit="10"/>
<path d="M5.40039 413.318H479.605" stroke="#263238" stroke-miterlimit="10" stroke-linecap="round" stroke-linejoin="round"/>
<path d="M61.1836 188.033C61.1836 188.033 83.9216 207.522 143.689 206.223C203.456 204.924 254.129 172.442 324.94 188.033C395.751 203.624 409.394 214.668 446.424 203.624" stroke="#263238" stroke-miterlimit="10"/>
<path d="M61.1836 199.727C61.1836 199.727 83.9216 219.216 143.689 217.917C203.456 216.618 254.129 184.135 324.94 199.727C395.751 215.319 409.394 226.362 446.424 215.318" stroke="#263238" stroke-miterlimit="10"/>
<path d="M61.1836 211.42C61.1836 211.42 83.9216 230.909 143.689 229.61C203.456 228.311 254.129 195.828 324.94 211.42C395.751 227.012 409.394 238.055 446.424 227.011" stroke="#263238" stroke-miterlimit="10"/>
<path d="M344.2 184.847C345.971 189.117 347.664 193.203 349.361 197.288C350.731 200.585 351.966 203.948 353.519 207.157C355.123 210.472 352.197 214.372 349.351 215.089C347.419 215.575 346.039 214.508 345.956 212.483C345.838 209.617 348.077 207.158 351.777 206.259C350.134 202.293 348.503 198.356 346.783 194.205C341.685 197.473 336.747 200.604 331.879 203.839C331.553 204.056 331.532 205.154 331.745 205.695C333.325 209.706 335.015 213.672 336.639 217.666C337.967 220.93 336.519 224.406 333.21 225.532C332.305 225.84 330.823 225.847 330.23 225.307C329.548 224.686 329.157 223.226 329.343 222.267C329.908 219.354 331.867 217.612 334.989 216.993C332.145 210.173 329.333 203.43 326.475 196.577C332.366 192.677 338.189 188.824 344.2 184.847ZM330.138 201.765C335.383 198.292 340.471 194.923 345.651 191.494C345.324 190.744 345.043 190.099 344.709 189.333C339.41 192.734 334.28 196.026 329.07 199.37C329.447 200.214 329.764 200.925 330.138 201.765Z" fill="#263238"/>
<path d="M197.332 191.68C197.334 191.667 197.336 191.654 197.338 191.641C190.135 191.89 183.156 192.132 176.096 192.376C174.951 199.712 173.825 206.931 172.685 214.232C169.7 213.129 167.119 213.59 165.115 215.778C164.455 216.499 164.026 217.947 164.282 218.834C164.505 219.604 165.773 220.373 166.705 220.583C170.115 221.352 173.166 219.145 173.739 215.669C174.441 211.416 175.073 207.15 175.822 202.906C175.923 202.334 176.514 201.408 176.906 201.394C182.708 201.181 188.515 201.093 194.526 200.972C193.871 205.172 193.216 209.367 192.558 213.584C189.573 212.48 186.992 212.942 184.988 215.13C184.756 215.384 184.554 215.73 184.399 216.109C184.396 216.113 184.393 216.117 184.39 216.121C183.403 217.891 184.022 219.522 185.923 220.117C188.724 220.994 193.257 219.197 193.622 215.533C193.7 214.746 193.801 213.96 193.909 213.176C194.496 209.535 195.056 205.889 195.697 202.257C195.798 201.685 196.389 200.759 196.781 200.745C202.622 200.531 208.468 200.443 214.522 200.321C213.819 204.759 213.152 208.968 212.48 213.208C208.855 212.041 205.662 212.968 204.265 215.473C203.278 217.243 203.897 218.874 205.798 219.469C208.599 220.346 213.132 218.549 213.497 214.885C213.85 211.338 214.554 207.825 215.11 204.298C215.798 199.928 216.49 195.559 217.212 190.994C210.473 191.225 203.929 191.452 197.332 191.68ZM176.508 198.716C176.628 197.805 176.729 197.033 176.849 196.116C183.011 195.988 189.079 195.863 195.344 195.733C195.222 196.513 195.101 197.292 194.979 198.071C188.814 198.286 182.754 198.498 176.508 198.716ZM214.976 197.417C208.768 197.634 202.669 197.847 196.383 198.066C196.486 197.282 196.577 196.588 196.677 195.828C196.696 195.707 196.715 195.587 196.734 195.465C202.92 195.337 209.011 195.211 215.303 195.081C215.187 195.91 215.089 196.607 214.976 197.417Z" fill="#263238"/>
<path d="M406.518 200.94C406.694 201.558 407.126 202.233 407.002 202.783C406.465 205.177 407.348 207.13 408.57 209.066C409.647 210.773 410.776 212.477 411.589 214.313C413.157 217.851 412.409 221.108 409.714 224.1C413.414 217.879 410.462 213.734 405.49 210.121C405.359 210.479 405.168 210.86 405.08 211.263C403.679 217.647 402.298 224.035 400.897 230.418C400.036 234.343 396.122 236.635 392.265 235.499C389.394 234.653 388.677 231.959 390.893 229.916C393.41 227.596 396.367 227.255 399.721 228.578C401.728 219.394 403.718 210.282 405.709 201.17C405.978 201.093 406.248 201.016 406.518 200.94Z" fill="#263238"/>
<path d="M111.584 184.049C111.76 184.667 112.192 185.342 112.069 185.892C111.532 188.286 112.415 190.239 113.636 192.175C114.713 193.882 115.842 195.586 116.655 197.421C118.223 200.959 117.475 204.216 114.78 207.208C118.48 200.987 115.528 196.842 110.556 193.229C110.425 193.587 110.234 193.968 110.146 194.371C108.745 200.755 107.364 207.143 105.963 213.526C105.102 217.451 101.189 219.743 97.3314 218.607C94.4604 217.761 93.7434 215.067 95.9594 213.024C98.4764 210.704 101.433 210.363 104.786 211.686C106.793 202.502 108.783 193.39 110.774 184.278C111.045 184.202 111.315 184.126 111.584 184.049Z" fill="#263238"/>
<path d="M374.739 207.598L376.129 201.182C376.152 200.868 376.194 200.548 376.268 200.217C376.391 199.667 375.96 198.992 375.783 198.374C375.513 198.451 375.244 198.528 374.974 198.604C372.983 207.716 370.992 216.828 368.986 226.012C365.633 224.688 362.676 225.03 360.159 227.35C357.943 229.393 358.66 232.087 361.531 232.933C365.389 234.07 369.302 231.777 370.163 227.852C371.564 221.468 372.945 215.08 374.346 208.697C374.431 208.309 374.609 207.944 374.739 207.598Z" fill="#263238"/>
<path d="M152.073 208.264L153.463 201.848C153.486 201.534 153.528 201.213 153.602 200.883C153.725 200.332 153.294 199.658 153.117 199.04C152.847 199.117 152.578 199.194 152.308 199.27C150.317 208.382 148.327 217.494 146.32 226.678C142.967 225.354 140.01 225.696 137.493 228.016C135.277 230.059 135.994 232.753 138.865 233.599C142.723 234.736 146.636 232.443 147.497 228.518C148.898 222.134 150.279 215.746 151.68 209.363C151.766 208.976 151.944 208.61 152.073 208.264Z" fill="#263238"/>
<path d="M261.101 100.156C261.101 100.156 252.619 97.4956 243.277 101.841C233.935 106.186 230.459 113.79 220.031 119.004C209.603 124.218 192.223 132.691 183.533 129.215C174.843 125.739 173.539 123.567 174.408 126.608C175.277 129.649 177.667 133.777 181.577 135.298C185.487 136.819 187.225 137.036 187.225 137.036C187.225 137.036 189.18 138.557 182.228 139.643C175.276 140.729 169.193 139.426 169.193 139.426C169.193 139.426 170.496 153.982 189.615 158.544C208.733 163.106 213.73 160.934 213.73 160.934C213.73 160.934 204.605 167.669 201.781 169.624C198.957 171.579 206.126 175.272 219.595 175.707C233.064 176.141 245.665 164.627 253.051 164.627C260.438 164.627 269.345 170.275 277.818 168.103C286.291 165.93 289.767 154.634 289.115 152.026C288.463 149.419 286.725 145.509 286.725 145.509C286.725 145.509 289.549 145.509 291.505 150.506C293.46 155.503 294.112 157.893 294.764 155.503C295.416 153.113 298.457 149.42 291.94 137.689C285.422 125.957 285.205 126.826 282.598 117.05C279.991 107.274 274.343 103.363 268.911 103.363L261.101 100.156Z" fill="#263238" stroke="#263238" stroke-miterlimit="10" stroke-linecap="round" stroke-linejoin="round"/>
<path d="M246.137 140.984C249.912 140.035 252.061 135.642 250.938 131.174C249.814 126.705 245.843 123.852 242.068 124.802C238.293 125.751 236.143 130.143 237.267 134.612C238.391 139.08 242.362 141.933 246.137 140.984Z" fill="white" stroke="#263238" stroke-miterlimit="10" stroke-linecap="round" stroke-linejoin="round"/>
<path d="M228.992 214.795C228.992 214.795 220.995 226.175 216.997 252.933C212.999 279.691 219.457 309.832 222.533 318.136C225.609 326.44 238.219 366.424 240.987 375.65C243.755 384.877 244.37 400.255 244.37 400.255C244.37 400.255 238.219 412.865 236.373 416.248C234.528 419.631 231.759 421.784 234.22 422.399C236.68 423.014 246.215 420.246 248.676 417.478C251.136 414.71 251.136 411.942 253.289 409.481C255.442 407.02 260.055 404.868 260.055 402.715C260.055 400.562 257.287 397.794 256.057 396.871C254.827 395.948 253.596 394.411 253.596 394.411C253.596 394.411 257.902 363.962 255.441 354.12C252.98 344.278 247.444 333.206 247.444 331.053C247.444 328.9 246.829 309.524 246.829 301.835C246.829 294.146 248.367 283.074 248.367 283.074C248.367 283.074 253.903 266.466 260.362 259.084C266.821 251.702 277.278 248.934 277.893 241.86C278.508 234.786 277.893 225.252 277.893 225.252L228.992 214.795Z" fill="#E98A15" stroke="#263238" stroke-miterlimit="10" stroke-linecap="round" stroke-linejoin="round"/>
<path d="M238.109 252.8C238.674 253.779 239.274 254.681 239.905 255.451" stroke="#263238" stroke-miterlimit="10" stroke-linecap="round" stroke-linejoin="round"/>
<path d="M232.623 238.462C232.623 238.462 234.294 245.146 237.003 250.709" stroke="#263238" stroke-miterlimit="10" stroke-linecap="round" stroke-linejoin="round"/>
<path d="M253.596 248.319C253.596 248.319 228.068 268.311 216.688 280.306C205.308 292.301 193.006 308.602 199.464 313.83C205.923 319.059 268.358 336.282 274.202 339.973C280.046 343.664 284.044 349.815 286.812 354.736C289.58 359.657 291.425 362.733 292.041 365.501C292.656 368.269 296.654 364.886 296.654 358.735C296.654 352.584 295.731 341.511 295.731 337.513C295.731 333.515 292.348 333.515 290.195 333.822C288.042 334.129 283.429 335.667 283.429 335.667C283.429 335.667 272.049 332.899 260.362 323.979C248.675 315.06 250.38 315.149 243.754 310.446C234.219 303.68 227.146 303.372 227.146 303.372C227.146 303.372 259.133 283.688 268.667 274.153C278.202 264.619 279.739 249.548 279.739 244.319C279.739 239.09 278.201 234.169 278.201 234.169" fill="#E98A15"/>
<path d="M253.596 248.319C253.596 248.319 228.068 268.311 216.688 280.306C205.308 292.301 193.006 308.602 199.464 313.83C205.923 319.059 268.358 336.282 274.202 339.973C280.046 343.664 284.044 349.815 286.812 354.736C289.58 359.657 291.425 362.733 292.041 365.501C292.656 368.269 296.654 364.886 296.654 358.735C296.654 352.584 295.731 341.511 295.731 337.513C295.731 333.515 292.348 333.515 290.195 333.822C288.042 334.129 283.429 335.667 283.429 335.667C283.429 335.667 272.049 332.899 260.362 323.979C248.675 315.06 250.38 315.149 243.754 310.446C234.219 303.68 227.146 303.372 227.146 303.372C227.146 303.372 259.133 283.688 268.667 274.153C278.202 264.619 279.739 249.548 279.739 244.319C279.739 239.09 278.201 234.169 278.201 234.169" stroke="#263238" stroke-miterlimit="10" stroke-linecap="round" stroke-linejoin="round"/>
<path d="M215.345 303.617C214.535 303.803 213.738 304.038 212.975 304.331" stroke="#263238" stroke-miterlimit="10" stroke-linecap="round" stroke-linejoin="round"/>
<path d="M227.144 303.373C227.144 303.373 223.596 302.779 219.449 303.043" stroke="#263238" stroke-miterlimit="10" stroke-linecap="round" stroke-linejoin="round"/>
<path d="M290.196 333.822C288.043 334.129 283.43 335.667 283.43 335.667C283.43 335.667 272.05 332.899 260.363 323.98C258.631 322.658 257.198 321.538 255.984 320.567C255.44 323.324 253.84 327.176 249.557 331.416C261.788 335.278 272.005 338.584 274.204 339.973C280.048 343.664 284.046 349.815 286.814 354.736C289.582 359.657 291.427 362.733 292.043 365.501C292.658 368.269 296.656 364.886 296.656 358.735C296.656 352.584 295.733 341.511 295.733 337.513C295.732 333.514 292.349 333.514 290.196 333.822Z" fill="white" stroke="#263238" stroke-miterlimit="10" stroke-linecap="round" stroke-linejoin="round"/>
<path d="M290.195 333.822C289.43 333.931 288.354 334.197 287.285 334.493C288.54 337.201 290.893 342.968 291.118 348.585C291.318 353.575 289.448 355.966 288.109 357.035C290.152 360.658 291.529 363.194 292.041 365.501C292.656 368.269 296.654 364.886 296.654 358.735C296.654 352.584 295.731 341.511 295.731 337.513C295.731 333.514 292.348 333.514 290.195 333.822Z" fill="#263238" stroke="#263238" stroke-miterlimit="10" stroke-linecap="round" stroke-linejoin="round"/>
<path d="M256.056 396.873C254.826 395.95 253.595 394.413 253.595 394.413C253.595 394.413 256.124 376.517 256.195 363.729C250.373 367.975 244.071 369.626 239.323 370.224C240.029 372.504 240.603 374.379 240.985 375.652C243.753 384.879 244.368 400.257 244.368 400.257C244.368 400.257 238.217 412.867 236.371 416.25C234.526 419.633 231.757 421.786 234.218 422.401C236.678 423.016 246.213 420.248 248.674 417.48C251.134 414.712 251.134 411.944 253.287 409.483C255.44 407.022 260.053 404.87 260.053 402.717C260.055 400.563 257.287 397.795 256.056 396.873Z" fill="white" stroke="#263238" stroke-miterlimit="10" stroke-linecap="round" stroke-linejoin="round"/>
<path d="M256.055 396.873C255.988 396.823 255.923 396.766 255.856 396.712C255.552 397.247 255.213 397.81 254.825 398.41C251.442 403.639 248.366 410.405 244.675 413.173C241.447 415.594 238.218 414.486 237.46 414.17C237.024 415.021 236.648 415.74 236.371 416.249C234.526 419.632 231.757 421.785 234.218 422.4C236.678 423.015 246.213 420.247 248.674 417.479C251.134 414.711 251.134 411.943 253.287 409.482C255.44 407.021 260.053 404.869 260.053 402.716C260.054 400.563 257.286 397.795 256.055 396.873Z" fill="#263238" stroke="#263238" stroke-miterlimit="10" stroke-linecap="round" stroke-linejoin="round"/>
<path d="M246.971 143.119C246.971 143.119 233.067 137.471 232.415 137.036C231.763 136.602 216.99 122.697 216.99 122.697L241.974 88.8056C241.974 88.8056 250.229 88.3706 253.271 87.2846C256.313 86.1986 259.137 85.7636 259.571 84.8946C260.006 84.0256 262.83 79.6806 264.133 77.9426C265.436 76.2046 262.83 75.1186 262.178 75.9876C261.526 76.8566 261.092 77.5086 261.092 77.5086C261.092 77.5086 256.964 72.5116 255.661 72.5116C254.357 72.5116 251.533 76.6396 251.533 76.6396C251.533 76.6396 241.757 78.3776 240.67 80.3326C239.584 82.2876 201.565 120.959 200.913 124.652C200.261 128.345 216.989 144.856 225.897 151.374C234.804 157.892 243.277 165.713 243.277 165.713C243.277 165.713 239.584 175.924 239.584 180.486C239.584 185.048 240.236 190.697 239.801 192.435C239.366 194.173 226.549 215.898 226.549 215.898C226.549 215.898 235.891 223.936 255.226 227.412C274.561 230.888 280.644 228.281 280.644 228.281C280.644 228.281 281.513 213.725 282.165 210.032C282.817 206.339 291.941 186.352 291.941 186.352L294.331 212.205C294.331 212.205 299.762 215.464 302.586 217.419C305.41 219.374 311.711 223.285 311.711 223.285C311.711 223.285 307.8 188.308 306.28 178.966C304.759 169.624 304.977 167.234 300.632 163.541C296.287 159.848 280.428 156.154 280.428 156.154L246.971 143.119Z" fill="white" stroke="#263238" stroke-miterlimit="10" stroke-linecap="round" stroke-linejoin="round"/>
<path d="M241.957 84.8076C241.957 84.8076 243.788 82.2146 246.838 81.7566C249.889 81.2986 258.279 82.3666 258.279 82.3666C258.279 82.3666 260.093 78.6006 261.093 77.5086" stroke="#263238" stroke-miterlimit="10" stroke-linecap="round" stroke-linejoin="round"/>
<path d="M256.601 73.2146C256.601 73.2146 253.55 76.2656 253.398 77.7906" stroke="#263238" stroke-miterlimit="10" stroke-linecap="round" stroke-linejoin="round"/>
<path d="M258.432 74.7396C258.432 74.7396 256.296 76.5696 254.924 79.4686" stroke="#263238" stroke-miterlimit="10" stroke-linecap="round" stroke-linejoin="round"/>
<path d="M260.567 76.8746C260.567 76.8746 255.991 79.7726 256.143 81.1456L251.533 76.6386" stroke="#263238" stroke-miterlimit="10" stroke-linecap="round" stroke-linejoin="round"/>
<path d="M300.631 163.54C296.286 159.847 280.427 156.153 280.427 156.153L246.97 143.118C246.97 143.118 243.734 141.803 240.311 140.393L241.41 164.028C242.582 165.071 243.277 165.711 243.277 165.711C243.277 165.711 239.584 175.922 239.584 180.484C239.584 185.046 240.236 190.695 239.801 192.433C239.366 194.171 226.549 215.896 226.549 215.896C226.549 215.896 235.891 223.934 255.226 227.41C274.561 230.886 280.644 228.279 280.644 228.279C280.644 228.279 281.513 213.723 282.165 210.03C282.817 206.337 291.941 186.35 291.941 186.35L292.346 190.734L306.005 177.238C304.768 169.311 304.695 166.995 300.631 163.54Z" fill="#CC0C3C" stroke="#263238" stroke-miterlimit="10" stroke-linecap="round" stroke-linejoin="round"/>
<path d="M243.277 165.713L246.996 153.133" stroke="#263238" stroke-miterlimit="10" stroke-linecap="round" stroke-linejoin="round"/>
<path d="M244.004 163.696V152.253" stroke="#263238" stroke-miterlimit="10" stroke-linecap="round" stroke-linejoin="round"/>
<path d="M289.245 179.187L291.941 186.352L288.189 181.652" fill="white"/>
<path d="M289.245 179.187L291.941 186.352L288.189 181.652" stroke="#263238" stroke-miterlimit="10" stroke-linecap="round" stroke-linejoin="round"/>
<path d="M266.881 201.511L269.002 202.776" stroke="#263238" stroke-miterlimit="10" stroke-linecap="round" stroke-linejoin="round"/>
<path d="M248.053 190.277L265.414 200.636" stroke="#263238" stroke-miterlimit="10" stroke-linecap="round" stroke-linejoin="round"/>
<path d="M248.229 193.094L258.439 199.079" stroke="#263238" stroke-miterlimit="10" stroke-linecap="round" stroke-linejoin="round"/>
<path d="M256.104 109.783C256.104 109.783 251.27 110.636 245.014 116.892C238.758 123.148 238.189 125.707 239.327 127.129C240.464 128.551 241.886 136.798 245.583 142.769C249.28 148.741 256.958 152.438 256.958 152.438C256.958 152.438 259.802 159.831 268.048 161.253C276.295 162.675 280.845 157.272 280.845 157.272C280.845 157.272 276.295 149.879 275.158 143.338C274.021 136.798 273.452 125.138 273.452 125.138L272.03 117.46C272.03 117.46 260.654 117.746 256.104 109.783Z" fill="white" stroke="#263238" stroke-miterlimit="10" stroke-linecap="round" stroke-linejoin="round"/>
<path d="M260.779 157.71C266.006 152.189 269.75 139.631 269.75 139.631C264.846 149.777 256.959 152.439 256.959 152.439C256.959 152.439 258.039 155.228 260.779 157.71Z" fill="#263238" stroke="#263238" stroke-miterlimit="10" stroke-linecap="round" stroke-linejoin="round"/>
<path d="M248.426 124.286L250.701 135.945L253.829 135.092" stroke="#263238" stroke-miterlimit="10" stroke-linecap="round" stroke-linejoin="round"/>
<path d="M252.977 140.779C252.977 140.779 261.229 140.729 261.229 133.051" stroke="#263238" stroke-miterlimit="10" stroke-linecap="round" stroke-linejoin="round"/>
<path d="M259.928 132.74H263.093" stroke="#263238" stroke-miterlimit="10" stroke-linecap="round" stroke-linejoin="round"/>
<path d="M255.182 126.699C255.182 126.699 257.915 127.418 260.792 125.261" stroke="#263238" stroke-miterlimit="10" stroke-linecap="round" stroke-linejoin="round"/>
<path d="M243.387 131.302C243.387 131.302 245.545 132.021 247.702 129.144" stroke="#263238" stroke-miterlimit="10" stroke-linecap="round" stroke-linejoin="round"/>
<path d="M253.168 121.089C253.168 121.089 254.894 118.5 259.065 120.226" stroke="#263238" stroke-miterlimit="10" stroke-linecap="round" stroke-linejoin="round"/>
<path d="M246.695 123.822C246.695 123.822 243.962 123.39 242.236 127.13" stroke="#263238" stroke-miterlimit="10" stroke-linecap="round" stroke-linejoin="round"/>
<path d="M273.313 116.885C273.313 116.885 271.359 110.78 267.452 106.506C263.545 102.232 261.102 100.156 261.102 100.156C261.102 100.156 267.207 102.11 270.504 105.407C273.801 108.704 275.633 116.275 275.633 116.275L273.313 116.885Z" fill="#E98A15" stroke="#263238" stroke-miterlimit="10" stroke-linecap="round" stroke-linejoin="round"/>
<path d="M273.038 130.47C273.038 130.47 274.412 143.177 270.291 155.197C266.17 167.217 256.21 177.52 254.837 179.581C253.463 181.642 234.231 221.823 247.625 222.166C261.019 222.509 272.352 203.964 272.352 203.964" stroke="#263238" stroke-miterlimit="10" stroke-linecap="round" stroke-linejoin="round"/>
<path d="M250.028 147.985C250.028 147.985 249.685 171.682 254.836 179.581" stroke="#263238" stroke-miterlimit="10" stroke-linecap="round" stroke-linejoin="round"/>
<path d="M276.342 131.495C280.117 130.546 282.266 126.154 281.143 121.685C280.019 117.217 276.048 114.364 272.273 115.313C268.498 116.263 266.349 120.655 267.472 125.123C268.596 129.592 272.567 132.445 276.342 131.495Z" fill="#E98A15" stroke="#263238" stroke-miterlimit="10" stroke-linecap="round" stroke-linejoin="round"/>
<path d="M290.479 181.061L272.043 202.676L273.569 204.456L292.259 182.206L290.479 181.061Z" fill="#263238" stroke="#263238" stroke-miterlimit="10" stroke-linecap="round" stroke-linejoin="round"/>
<path d="M312.476 220.858C311.84 219.332 310.699 216.302 310.699 216.302C310.699 216.302 287.621 204.25 287.364 203.481C287.108 202.712 285.825 200.917 286.595 199.122C287.364 197.327 288.903 189.378 288.903 189.378C288.903 189.378 283.774 184.506 283.005 184.249C282.236 183.993 280.954 186.557 280.954 186.557C280.954 186.557 280.537 187.021 280.078 187.632C278.825 188.543 275.827 190.799 275.827 191.526C275.827 192.444 277.052 192.036 277.766 191.934C278.326 191.854 279.5 191.465 279.988 191.298C281.44 191.832 282.155 192.75 282.155 192.75L283.006 193.736C283.006 193.736 279.419 191.868 277.512 192.25C275.605 192.631 275.986 194.411 275.986 194.411L276.24 195.174C276.24 195.174 273.061 196.954 273.061 198.098C273.061 199.242 275.095 197.971 276.494 197.844C277.893 197.717 278.528 197.717 278.528 197.717C278.528 197.717 277.384 204.074 279.672 206.236C281.961 208.397 283.995 208.779 283.995 208.779C283.995 208.779 297.727 224.164 301.414 227.597C305.101 231.03 309.933 233.446 311.459 231.284C312.984 229.123 313.111 222.384 312.476 220.858Z" fill="white" stroke="#263238" stroke-miterlimit="10" stroke-linecap="round" stroke-linejoin="round"/>
<path d="M276.238 195.175C276.238 195.175 277.382 194.666 278.272 194.666C279.162 194.666 281.578 195.556 281.705 197.972" stroke="#263238" stroke-miterlimit="10" stroke-linecap="round" stroke-linejoin="round"/>
<path d="M280.725 187.444C280.725 187.444 285.521 189.072 286.03 190.598C286.538 192.124 286.411 194.158 286.411 194.158" stroke="#263238" stroke-miterlimit="10" stroke-linecap="round" stroke-linejoin="round"/>
<path d="M283.004 193.736C283.004 193.736 283.74 194.665 283.74 196.445" stroke="#263238" stroke-miterlimit="10" stroke-linecap="round" stroke-linejoin="round"/>
</svg>
