<svg width="461" height="474" viewBox="0 0 461 474" fill="none" xmlns="http://www.w3.org/2000/svg">
<path d="M359.356 99.1864C356.157 92.3374 352.804 85.5904 348.989 79.1624C304.96 4.97742 187.042 -35.4076 128.613 41.2714C114.687 59.5474 109.834 81.6314 100.46 102.59C79.1407 150.26 39.3107 178.759 14.3357 222.901C-5.0243 257.119 -2.4433 300.973 8.3567 337.964C20.0917 378.159 40.7457 406.232 73.7817 427.571C110.818 451.494 150.429 444.852 190.461 436.527C208.464 432.783 227.026 428.963 245.435 430.392C268.482 432.181 291.237 439.388 314.103 442.891C337.883 446.534 362.556 447.396 385.464 439.456C458.824 414.031 476.204 294.882 446.036 226.629C435.358 202.47 417.259 183.831 400.454 164.92C382.311 144.507 371.192 124.528 359.356 99.1864Z" fill="#E3073C"/>
<path opacity="0.8" d="M359.356 99.1864C356.157 92.3374 352.804 85.5904 348.989 79.1624C304.96 4.97742 187.042 -35.4076 128.613 41.2714C114.687 59.5474 109.834 81.6314 100.46 102.59C79.1407 150.26 39.3107 178.759 14.3357 222.901C-5.0243 257.119 -2.4433 300.973 8.3567 337.964C20.0917 378.159 40.7457 406.232 73.7817 427.571C110.818 451.494 150.429 444.852 190.461 436.527C208.464 432.783 227.026 428.963 245.435 430.392C268.482 432.181 291.237 439.388 314.103 442.891C337.883 446.534 362.556 447.396 385.464 439.456C458.824 414.031 476.204 294.882 446.036 226.629C435.358 202.47 417.259 183.831 400.454 164.92C382.311 144.507 371.192 124.528 359.356 99.1864Z" fill="white"/>
<path d="M192.986 32.1344H39.8906V231.792H192.986V32.1344Z" stroke="#E3073C" stroke-miterlimit="10" stroke-linecap="round" stroke-linejoin="round"/>
<path d="M182.444 45.8813H50.4297V218.046H182.444V45.8813Z" stroke="#F9CDD8" stroke-miterlimit="10" stroke-linecap="round" stroke-linejoin="round"/>
<path d="M146.886 92.2534H85.9883V171.673H146.886V92.2534Z" stroke="#E3073C" stroke-miterlimit="10" stroke-linecap="round" stroke-linejoin="round"/>
<path d="M436.144 51.1833H369.361V138.277H436.144V51.1833Z" stroke="#F9CDD8" stroke-miterlimit="10" stroke-linecap="round" stroke-linejoin="round"/>
<path d="M431.545 57.1793H373.959V132.28H431.545V57.1793Z" stroke="#F9CDD8" stroke-miterlimit="10" stroke-linecap="round" stroke-linejoin="round"/>
<path d="M416.036 77.4083H389.471V112.052H416.036V77.4083Z" stroke="#F9CDD8" stroke-miterlimit="10" stroke-linecap="round" stroke-linejoin="round"/>
<path d="M360.969 25.5004H313.777V87.0454H360.969V25.5004Z" stroke="#F9CDD8" stroke-miterlimit="10" stroke-linecap="round" stroke-linejoin="round"/>
<path d="M357.718 29.7384H317.025V82.8084H357.718V29.7384Z" stroke="#F9CDD8" stroke-miterlimit="10" stroke-linecap="round" stroke-linejoin="round"/>
<path d="M346.76 44.0323H327.988V68.5133H346.76V44.0323Z" stroke="#F9CDD8" stroke-miterlimit="10" stroke-linecap="round" stroke-linejoin="round"/>
<path d="M272.207 127.367C282.432 119.759 289.831 121.761 287.994 124.435C286.158 127.109 285.891 127.598 275.042 131.698C266.857 134.792 259.475 139.328 256.341 141.371C256.16 142.412 256.063 143.476 256.083 144.568C256.143 147.955 257.021 151.246 258.415 154.395C260.465 151.239 264.023 147.743 264.023 147.743C264.023 147.743 278.92 141.793 287.205 139.843C295.489 137.893 296.946 138.94 293.539 143.8C290.132 148.66 285.338 150.483 276.495 154.156C269.641 157.003 264.578 160.352 262.642 161.719C264.795 164.782 267.254 167.636 269.663 170.238C270.322 168.499 271.757 166.245 274.894 164.308C281.001 160.539 295.563 157.066 298.377 154.925C301.191 152.783 304.153 160.605 289.255 166.555C280.571 170.023 276.469 173.227 274.554 175.298C277.858 178.575 281.103 181.508 284.24 184.13C285.763 183.021 287.878 181.536 290.791 179.554C306.094 169.137 307.172 173.905 300.471 180.392C295.905 184.812 291.427 186.922 289.794 188.554C292.811 190.839 295.688 192.831 298.379 194.573C299.441 193.056 301.505 191.083 307.342 190.342C318.095 188.977 315.273 191.367 308.625 196.362C307.137 197.48 306.133 198.279 305.521 198.904C309.235 201.011 312.333 202.556 314.593 203.697C315.933 204.373 317.024 204.924 317.931 205.382C318.282 204.747 318.38 203.517 319.872 202.233C323.209 199.363 324.905 206.081 322.146 207.509C322.146 207.509 325.351 206.23 329.351 204C328.513 202.525 326.848 202.179 328.182 199.537C329.777 196.377 332.732 196.464 335.324 200.217C337.579 198.58 339.731 196.714 341.421 194.67C338.967 192.091 335.423 189.296 336.566 187.632C337.752 185.906 341.928 187.499 345.281 188.799C346.893 186.082 348.516 183.112 350.071 179.966C347.281 179.576 343.683 178.683 342.18 176.626C339.567 173.049 340.16 170.331 342.647 170.418C344.547 170.485 349.278 172.537 352.834 173.998C354.043 171.198 355.168 168.307 356.161 165.367C352.251 164.611 346.989 163.886 345.235 160.55C342.434 155.224 345.924 155.097 356.193 160.437C356.654 160.677 357.085 160.886 357.502 161.082C358.55 157.433 359.364 153.744 359.857 150.097C354.852 147.685 346.556 146.425 340.109 143.441C330.8 139.131 338.39 135.663 341.108 136.256C343.137 136.699 354.131 142.59 360.299 145.573C360.649 139.583 360.001 133.806 357.953 128.62C352.538 127.312 343.682 126.687 338.499 125.459C331.092 123.705 328.496 119.631 336.17 120.896C341.593 121.79 350.94 124.063 356.069 124.71C353.884 120.926 350.786 117.559 346.573 114.793C342.397 112.051 337.088 109.54 331.445 107.885C327.771 109.115 324.7 111.144 323.314 111.234C320.819 111.395 323.153 108.739 323.72 106.767C323.772 106.587 323.842 106.421 323.921 106.266C313.927 104.912 303.973 106.937 298.173 115.612C298.732 114.776 291.509 111.786 291.012 111.667C285.616 110.374 279.83 112.8 275.005 115.127C269.392 117.835 265.367 122.75 262.319 128.058C261.07 130.232 259.739 132.435 258.627 134.72C260.325 134.389 264.607 133.021 272.207 127.367Z" fill="#E3073C"/>
<path d="M318.968 215.057C324.428 210.995 328.378 212.064 327.397 213.492C326.416 214.92 326.274 215.181 320.482 217.37C316.112 219.022 312.171 221.444 310.497 222.535C310.4 223.091 310.349 223.659 310.359 224.242C310.391 226.05 310.86 227.807 311.604 229.489C312.698 227.804 314.598 225.937 314.598 225.937C314.598 225.937 322.552 222.76 326.975 221.719C331.398 220.678 332.176 221.237 330.357 223.832C328.538 226.427 325.978 227.4 321.257 229.361C317.597 230.881 314.894 232.669 313.86 233.399C315.01 235.034 316.322 236.558 317.609 237.947C317.961 237.019 318.727 235.815 320.402 234.781C323.663 232.768 331.438 230.914 332.94 229.771C334.442 228.627 336.024 232.804 328.07 235.981C323.434 237.833 321.243 239.544 320.221 240.649C321.985 242.399 323.717 243.965 325.393 245.365C326.206 244.773 327.336 243.98 328.89 242.922C337.061 237.36 337.636 239.906 334.058 243.369C331.62 245.729 329.229 246.856 328.357 247.727C329.968 248.947 331.504 250.011 332.94 250.941C333.507 250.131 334.609 249.078 337.726 248.682C343.467 247.953 341.96 249.229 338.411 251.896C337.617 252.493 337.08 252.919 336.754 253.254C338.737 254.379 340.391 255.204 341.598 255.813C342.313 256.174 342.896 256.468 343.38 256.713C343.567 256.374 343.62 255.717 344.416 255.032C346.198 253.499 347.103 257.086 345.63 257.849C345.63 257.849 347.341 257.166 349.477 255.975C349.029 255.187 348.141 255.003 348.853 253.592C349.705 251.905 351.283 251.951 352.667 253.955C353.871 253.081 355.02 252.085 355.922 250.993C354.612 249.616 352.719 248.124 353.33 247.235C353.963 246.313 356.193 247.164 357.983 247.858C358.844 246.407 359.711 244.822 360.541 243.142C359.051 242.934 357.13 242.457 356.328 241.359C354.933 239.449 355.25 237.998 356.577 238.045C357.591 238.081 360.117 239.177 362.016 239.956C362.661 238.461 363.262 236.918 363.792 235.348C361.705 234.944 358.895 234.557 357.958 232.776C356.463 229.932 358.326 229.865 363.809 232.715C364.055 232.843 364.285 232.955 364.508 233.06C365.068 231.111 365.502 229.142 365.765 227.195C363.093 225.907 358.663 225.235 355.221 223.641C350.251 221.34 354.303 219.488 355.754 219.805C356.837 220.041 362.707 223.187 366 224.779C366.187 221.581 365.841 218.497 364.748 215.727C361.857 215.029 357.128 214.695 354.361 214.039C350.406 213.103 349.02 210.927 353.117 211.603C356.012 212.08 361.003 213.294 363.742 213.639C362.575 211.619 360.921 209.821 358.672 208.344C356.442 206.88 353.608 205.539 350.595 204.656C348.634 205.313 346.994 206.396 346.254 206.444C344.922 206.53 346.168 205.112 346.471 204.059C346.499 203.963 346.536 203.874 346.578 203.791C341.242 203.068 335.927 204.149 332.831 208.781C333.129 208.335 329.273 206.738 329.007 206.675C326.126 205.985 323.037 207.28 320.461 208.522C317.464 209.968 315.315 212.592 313.688 215.426C313.021 216.587 312.31 217.763 311.717 218.983C312.624 218.807 314.91 218.076 318.968 215.057Z" fill="#E3073C"/>
<path d="M269.337 275.176C274.797 271.114 278.747 272.183 277.766 273.611C276.785 275.039 276.643 275.3 270.851 277.489C266.481 279.141 262.54 281.563 260.866 282.654C260.769 283.21 260.718 283.778 260.728 284.361C260.76 286.169 261.229 287.926 261.973 289.608C263.068 287.923 264.967 286.056 264.967 286.056C264.967 286.056 272.921 282.879 277.344 281.838C281.767 280.797 282.545 281.356 280.726 283.951C278.907 286.546 276.347 287.519 271.626 289.48C267.966 291 265.263 292.788 264.229 293.518C265.379 295.153 266.691 296.677 267.978 298.066C268.33 297.138 269.096 295.934 270.771 294.9C274.032 292.887 281.807 291.033 283.309 289.89C284.811 288.746 286.393 292.923 278.439 296.1C273.802 297.952 271.612 299.663 270.59 300.768C272.354 302.518 274.086 304.083 275.762 305.484C276.575 304.892 277.705 304.099 279.259 303.041C287.43 297.479 288.005 300.025 284.427 303.488C281.989 305.848 279.598 306.974 278.726 307.846C280.337 309.066 281.873 310.13 283.309 311.06C283.876 310.25 284.978 309.197 288.095 308.801C293.836 308.072 292.329 309.348 288.78 312.015C287.986 312.612 287.449 313.038 287.123 313.372C289.106 314.497 290.76 315.322 291.967 315.931C292.682 316.292 293.265 316.586 293.749 316.831C293.936 316.492 293.989 315.835 294.785 315.15C296.567 313.617 297.472 317.204 295.999 317.967C295.999 317.967 297.71 317.284 299.846 316.093C299.399 315.305 298.51 315.121 299.222 313.71C300.074 312.023 301.651 312.069 303.036 314.073C304.24 313.199 305.389 312.203 306.291 311.111C304.981 309.734 303.088 308.242 303.699 307.353C304.332 306.431 306.562 307.282 308.352 307.976C309.213 306.525 310.08 304.94 310.91 303.26C309.42 303.052 307.499 302.575 306.697 301.477C305.302 299.567 305.619 298.116 306.946 298.162C307.96 298.198 310.486 299.294 312.385 300.073C313.03 298.578 313.631 297.035 314.161 295.465C312.074 295.061 309.264 294.674 308.327 292.893C306.832 290.049 308.695 289.982 314.178 292.832C314.424 292.96 314.654 293.072 314.877 293.177C315.437 291.228 315.871 289.259 316.134 287.312C313.462 286.024 309.032 285.352 305.59 283.758C300.619 281.457 304.672 279.605 306.123 279.922C307.206 280.159 313.076 283.304 316.369 284.897C316.556 281.699 316.21 278.614 315.116 275.845C312.225 275.147 307.497 274.813 304.729 274.157C300.774 273.221 299.388 271.045 303.485 271.721C306.38 272.198 311.371 273.412 314.11 273.757C312.943 271.737 311.289 269.939 309.04 268.462C306.81 266.998 303.976 265.657 300.963 264.774C299.002 265.431 297.362 266.514 296.621 266.562C295.289 266.648 296.535 265.23 296.838 264.177C296.866 264.081 296.903 263.992 296.945 263.909C291.609 263.186 286.294 264.267 283.197 268.899C283.495 268.453 279.639 266.856 279.374 266.792C276.493 266.102 273.404 267.397 270.828 268.639C267.831 270.085 265.682 272.709 264.055 275.543C263.389 276.704 262.678 277.88 262.084 279.1C262.993 278.925 265.279 278.195 269.337 275.176Z" fill="#E3073C"/>
<path d="M303.397 213.58C296.57 207.714 291.259 208.759 292.42 210.733C293.581 212.708 293.745 213.065 301.185 216.491C306.798 219.075 311.774 222.637 313.881 224.231C313.957 224.974 313.972 225.728 313.905 226.496C313.695 228.879 312.914 231.154 311.776 233.303C310.488 230.978 308.154 228.339 308.154 228.339C308.154 228.339 297.953 223.41 292.214 221.626C286.474 219.842 285.396 220.508 287.556 224.1C289.716 227.692 293.003 229.214 299.05 232.239C303.738 234.584 307.138 237.194 308.435 238.252C306.766 240.303 304.893 242.192 303.067 243.906C302.689 242.648 301.79 240.989 299.675 239.47C295.559 236.512 285.473 233.345 283.596 231.697C281.72 230.049 279.246 235.412 289.446 240.342C295.392 243.215 298.123 245.675 299.37 247.229C296.88 249.374 294.449 251.28 292.109 252.972C291.091 252.115 289.674 250.965 287.721 249.424C277.456 241.328 276.461 244.633 280.86 249.535C283.858 252.875 286.908 254.583 287.978 255.814C285.739 257.274 283.614 258.535 281.632 259.629C280.959 258.508 279.603 257.016 275.527 256.205C268.019 254.711 269.889 256.535 274.325 260.383C275.318 261.244 275.986 261.857 276.386 262.328C273.665 263.629 271.407 264.564 269.758 265.255C268.781 265.665 267.984 265.999 267.323 266.277C267.107 265.812 267.099 264.941 266.112 263.963C263.903 261.776 262.376 266.424 264.249 267.567C264.249 267.567 262.055 266.507 259.347 264.738C260.01 263.74 261.2 263.579 260.391 261.652C259.424 259.347 257.338 259.262 255.326 261.778C253.819 260.513 252.395 259.092 251.305 257.569C253.161 255.873 255.797 254.08 255.074 252.851C254.324 251.576 251.303 252.492 248.877 253.241C247.876 251.247 246.879 249.075 245.94 246.782C247.925 246.645 250.504 246.195 251.664 244.82C253.682 242.429 253.399 240.485 251.642 240.424C250.3 240.377 246.866 241.589 244.289 242.442C243.576 240.41 242.927 238.317 242.373 236.197C245.165 235.858 248.908 235.608 250.309 233.344C252.546 229.73 250.093 229.468 242.595 232.722C242.258 232.868 241.944 232.995 241.641 233.112C241.083 230.489 240.693 227.85 240.526 225.257C244.171 223.806 250.078 223.329 254.768 221.545C261.54 218.969 256.364 216.15 254.42 216.434C252.969 216.646 244.932 220.251 240.439 222.048C240.489 217.811 241.231 213.773 242.931 210.221C246.81 209.568 253.08 209.565 256.792 208.957C262.097 208.088 264.127 205.346 258.659 205.858C254.794 206.219 248.097 207.358 244.451 207.56C246.178 205.003 248.527 202.784 251.632 201.044C254.71 199.319 258.574 197.813 262.631 196.926C265.158 197.975 267.221 199.556 268.194 199.688C269.944 199.925 268.431 197.938 268.129 196.521C268.101 196.392 268.06 196.271 268.012 196.158C275.12 195.699 282.032 197.618 285.689 204.016C285.337 203.4 290.573 201.65 290.929 201.591C294.794 200.947 298.75 202.943 302.034 204.821C305.854 207.006 308.446 210.669 310.331 214.559C311.103 216.152 311.932 217.77 312.602 219.435C311.42 219.115 308.471 217.94 303.397 213.58Z" fill="#E3073C"/>
<path d="M269.514 186.957C268.96 181.46 262.102 178.232 257.875 178.084C257.875 178.084 249.717 169.333 244.007 168.884C238.297 168.435 231.247 170.677 228.56 176.309C225.873 181.941 223.107 204.001 223.107 204.001C223.107 204.001 231.204 202.012 240.052 200.52L240.164 200.368C240.164 200.368 246.961 191.146 246.873 193.632C246.818 195.201 245.333 198.006 244.244 199.864C246.09 199.6 247.919 199.373 249.665 199.207C252.381 198.949 254.951 198.433 257.288 197.727C257.845 194.289 258.749 189.244 259.411 191.084C259.965 192.622 260.491 194.897 260.818 196.44C266.372 194.028 269.867 190.46 269.514 186.957Z" fill="#E3073C"/>
<path d="M314.67 281.127C315.608 275.683 322.675 272.943 326.902 273.092C326.902 273.092 335.653 264.934 341.381 264.886C347.109 264.838 353.984 267.569 356.27 273.375C358.556 279.181 359.769 301.382 359.769 301.382C359.769 301.382 351.832 298.83 343.11 296.721L343.009 296.561C343.009 296.561 336.876 286.885 336.788 289.372C336.733 290.941 338.018 293.843 338.974 295.773C337.151 295.38 335.342 295.026 333.612 294.738C330.92 294.29 328.394 293.596 326.112 292.728C325.797 289.259 325.25 284.163 324.46 285.953C323.8 287.449 323.115 289.681 322.681 291.197C317.309 288.401 314.073 284.596 314.67 281.127Z" fill="#E3073C"/>
<path d="M299.981 369.477C299.84 364.854 299.697 358.042 299.532 350.154C298.734 312.188 297.25 241.517 291.876 213.681C285.616 181.25 260.47 182.546 259.402 182.618L259.266 180.623C259.542 180.603 287.236 179.094 293.84 213.303C299.246 241.306 300.733 312.087 301.531 350.114C301.697 357.996 301.84 364.804 301.98 369.417L299.981 369.477Z" fill="#E3073C"/>
<path d="M304.373 126.585L302.373 126.598L303.971 368.715L305.971 368.702L304.373 126.585Z" fill="#E3073C"/>
<path d="M308.772 368.92C308.568 364.002 303.844 248.182 309.384 224.019C311.162 216.268 314.615 211.215 319.647 209C327.608 205.497 336.463 210.429 336.835 210.64L335.849 212.38C335.767 212.334 327.478 207.731 320.443 210.834C316.026 212.783 312.962 217.37 311.335 224.465C305.854 248.368 310.721 367.636 310.771 368.837L308.772 368.92Z" fill="#E3073C"/>
<path d="M312.73 368.664C311.947 359.534 305.315 279.283 313.499 272.967C317.076 270.207 321.681 269.957 326.816 272.233C330.572 273.899 333.276 276.314 333.389 276.416L332.051 277.903C331.952 277.813 321.948 268.972 314.721 274.55C313.342 275.614 310.31 282.507 311.921 323.441C312.813 346.091 314.703 368.272 314.723 368.494L312.73 368.664Z" fill="#E3073C"/>
<path d="M297.193 368.458L295.196 368.345C301.795 252.186 299.885 205.628 297.132 203.566C290.099 199.737 278.439 209.669 278.322 209.769L277.016 208.254C277.536 207.806 289.843 197.32 298.102 201.817C299.713 202.694 303.484 204.748 300.813 287.162C299.502 327.607 297.216 368.055 297.193 368.458Z" fill="#E3073C"/>
<path d="M337.727 351.665L342.358 250.356L437.299 248.04L432.089 359.48L409.506 360.216L337.727 351.665Z" fill="white" stroke="#263238" stroke-miterlimit="10" stroke-linecap="round" stroke-linejoin="round"/>
<path d="M323.832 243.988L342.357 250.356L437.298 248.04L415.299 239.646L323.832 243.988Z" fill="white" stroke="#263238" stroke-miterlimit="10" stroke-linecap="round" stroke-linejoin="round"/>
<path d="M409.504 360.216L415.298 239.646L437.297 248.04L432.087 359.48L409.504 360.216Z" fill="#263238" stroke="#263238" stroke-miterlimit="10" stroke-linecap="round" stroke-linejoin="round"/>
<path d="M323.832 243.988L320.648 348.77L339.139 351.049L342.357 250.356L323.832 243.988Z" fill="#263238" stroke="#263238" stroke-miterlimit="10" stroke-linecap="round" stroke-linejoin="round"/>
<path d="M223.559 356.576L315.47 376.899L316.684 412.087L225.682 384.483L223.559 356.576Z" fill="#E3073C" stroke="#263238" stroke-miterlimit="10" stroke-linecap="round" stroke-linejoin="round"/>
<path d="M315.469 376.899L409.504 360.216V389.943L316.683 412.087L315.469 376.899Z" fill="#263238" stroke="#263238" stroke-miterlimit="10" stroke-linecap="round" stroke-linejoin="round"/>
<path d="M409.505 360.216L312.134 345.352L223.559 356.576L315.47 376.899L409.505 360.216Z" fill="white" stroke="#263238" stroke-miterlimit="10" stroke-linecap="round" stroke-linejoin="round"/>
<path d="M248.232 375.14C248.232 375.14 246.307 378.269 246.788 382.6C247.269 386.932 252.142 394.503 263.393 398.723C273.235 402.415 283.426 398.748 286.255 395.354C289.865 391.022 290.105 385.006 289.143 383.803C288.18 382.6 287.94 382.359 286.977 384.044C286.015 385.729 285.292 387.654 280.961 388.857C276.629 390.06 267.003 389.82 260.265 387.413C253.527 385.007 252.564 383.081 251.842 379.472C251.12 375.862 250.398 372.493 248.232 375.14Z" fill="#263238" stroke="#263238" stroke-miterlimit="10" stroke-linecap="round" stroke-linejoin="round"/>
<path d="M348.584 355.36C348.584 360.79 324.424 365.18 294.624 365.18C280.974 365.18 268.504 364.26 258.994 362.74C252.454 361.69 247.314 360.36 244.164 358.85C241.904 357.77 240.664 356.59 240.664 355.36C240.664 349.94 264.824 345.54 294.624 345.54C306.574 345.54 317.614 346.25 326.564 347.44C332.134 348.19 336.884 349.13 340.534 350.2C345.634 351.7 348.584 353.47 348.584 355.36Z" fill="#263238" stroke="#263238" stroke-miterlimit="10" stroke-linecap="round" stroke-linejoin="round"/>
<path d="M280.176 355.72L244.166 358.85C247.316 360.36 252.456 361.69 258.996 362.74L283.116 356.03L280.176 355.72ZM326.565 347.44L308.605 351.24L308.305 352.47L340.535 350.2C336.885 349.13 332.135 348.19 326.565 347.44Z" fill="white" stroke="#263238" stroke-miterlimit="10" stroke-linecap="round" stroke-linejoin="round"/>
<path d="M314.865 353.196C314.865 355.23 305.803 356.88 294.625 356.88C283.447 356.88 274.385 355.231 274.385 353.196C274.385 351.161 283.447 349.512 294.625 349.512C305.803 349.512 314.865 351.161 314.865 353.196Z" fill="white" stroke="#263238" stroke-miterlimit="10" stroke-linecap="round" stroke-linejoin="round"/>
<path d="M296.295 353.196C296.295 353.364 295.547 353.5 294.625 353.5C293.703 353.5 292.955 353.364 292.955 353.196C292.955 353.028 293.703 352.892 294.625 352.892C295.547 352.892 296.295 353.028 296.295 353.196Z" fill="white" stroke="#263238" stroke-miterlimit="10" stroke-linecap="round" stroke-linejoin="round"/>
<path d="M294.623 353.196V351.341" stroke="#263238" stroke-miterlimit="10" stroke-linecap="round" stroke-linejoin="round"/>
<path d="M313.527 357.073C313.02 357.073 312.587 356.69 312.533 356.175C312.476 355.626 312.876 355.135 313.425 355.077L367.721 349.504C368.277 349.45 368.761 349.847 368.819 350.397C368.876 350.946 368.476 351.437 367.926 351.495L313.63 357.068C313.595 357.071 313.561 357.073 313.527 357.073Z" fill="white" stroke="#263238" stroke-miterlimit="10" stroke-linecap="round" stroke-linejoin="round"/>
<path d="M313.527 357.073L313.798 360.306C313.862 361.068 314.542 361.627 315.302 361.542L328.415 360.07C329.102 359.993 329.621 359.412 329.621 358.721V355.767L313.527 357.073Z" fill="white" stroke="#263238" stroke-miterlimit="10" stroke-linecap="round" stroke-linejoin="round"/>
<path d="M370.164 356.929V359.46C370.164 360.434 372.281 361.223 374.892 361.223C377.503 361.223 379.62 360.434 379.62 359.46V356.929H370.164Z" fill="#263238" stroke="#263238" stroke-miterlimit="10" stroke-linecap="round" stroke-linejoin="round"/>
<path d="M379.62 356.929C379.62 357.796 377.503 358.498 374.892 358.498C372.281 358.498 370.164 357.795 370.164 356.929C370.164 356.062 372.281 355.359 374.892 355.359C377.503 355.36 379.62 356.062 379.62 356.929Z" fill="#263238" stroke="#263238" stroke-miterlimit="10" stroke-linecap="round" stroke-linejoin="round"/>
<path d="M381.673 345.425C379.967 345.119 378.031 345.25 376.691 345.373C375.873 345.448 365.041 346.899 365.041 347.328V357.586L369.529 358.258L382.481 356.549C384.149 356.329 385.397 354.906 385.397 353.223C385.397 353.223 385.397 349.107 385.397 349.091C385.395 346.764 383.696 345.788 381.673 345.425Z" fill="#263238" stroke="#263238" stroke-miterlimit="10" stroke-linecap="round" stroke-linejoin="round"/>
<path d="M351.578 361.786V364.317C351.578 365.291 353.695 366.08 356.306 366.08C358.917 366.08 361.034 365.291 361.034 364.317V361.786H351.578Z" fill="#263238" stroke="#263238" stroke-miterlimit="10" stroke-linecap="round" stroke-linejoin="round"/>
<path d="M361.034 361.786C361.034 362.653 358.917 363.356 356.306 363.356C353.695 363.356 351.578 362.653 351.578 361.786C351.578 360.919 353.695 360.216 356.306 360.216C358.917 360.216 361.034 360.919 361.034 361.786Z" fill="white" stroke="#263238" stroke-miterlimit="10" stroke-linecap="round" stroke-linejoin="round"/>
<path d="M335.629 364.398V366.929C335.629 367.903 337.746 368.692 340.357 368.692C342.968 368.692 345.085 367.903 345.085 366.929V364.398H335.629Z" fill="#263238" stroke="#263238" stroke-miterlimit="10" stroke-linecap="round" stroke-linejoin="round"/>
<path d="M340.357 365.968C342.968 365.968 345.085 365.265 345.085 364.398C345.085 363.531 342.968 362.828 340.357 362.828C337.746 362.828 335.629 363.531 335.629 364.398C335.629 365.265 337.746 365.968 340.357 365.968Z" fill="white" stroke="#263238" stroke-miterlimit="10" stroke-linecap="round" stroke-linejoin="round"/>
<path d="M317.377 368.983V370.484C317.377 371.061 318.632 371.529 320.18 371.529C321.728 371.529 322.983 371.061 322.983 370.484V368.983H317.377Z" fill="#263238" stroke="#263238" stroke-miterlimit="10" stroke-linecap="round" stroke-linejoin="round"/>
<path d="M322.984 368.983C322.984 369.497 321.729 369.914 320.181 369.914C318.633 369.914 317.377 369.497 317.377 368.983C317.377 368.469 318.632 368.052 320.181 368.052C321.729 368.052 322.984 368.469 322.984 368.983Z" fill="white" stroke="#263238" stroke-miterlimit="10" stroke-linecap="round" stroke-linejoin="round"/>
<path d="M152.782 245.935C152.782 245.935 183.572 250.01 188.779 256.349C193.986 262.688 194.665 268.575 195.571 273.329C196.477 278.083 204.627 332.871 205.759 344.191C206.891 355.511 208.249 360.039 206.212 364.567C204.174 369.095 193.081 376.566 187.421 377.245C181.761 377.924 176.327 377.471 172.479 375.887C168.63 374.302 156.178 366.378 156.178 366.378L23.5098 376.566C23.5098 376.566 53.8468 267.216 59.5068 258.613C65.1668 250.01 88.4858 243.218 102.522 240.954C116.559 238.69 152.782 245.935 152.782 245.935Z" fill="#E3073C" stroke="#263238" stroke-miterlimit="10" stroke-linecap="round" stroke-linejoin="round"/>
<path d="M167.951 325.853C167.951 325.853 177.686 319.967 191.27 325.853" stroke="#263238" stroke-miterlimit="10" stroke-linecap="round" stroke-linejoin="round"/>
<path d="M168.629 320.193C168.629 320.193 178.59 309.779 189.684 305.93" stroke="#263238" stroke-miterlimit="10" stroke-linecap="round" stroke-linejoin="round"/>
<path d="M181.395 293.36C182.331 292.127 183.221 291.011 184.026 290.082" stroke="#263238" stroke-miterlimit="10" stroke-linecap="round" stroke-linejoin="round"/>
<path d="M167.725 313.627C167.725 313.627 173.348 304.581 178.666 297.088" stroke="#263238" stroke-miterlimit="10" stroke-linecap="round" stroke-linejoin="round"/>
<path d="M83.5509 145.306C83.5509 145.306 66.0149 144.053 56.7459 151.569C47.4769 159.085 54.9919 161.84 54.9919 161.84C54.9919 161.84 39.4599 167.101 39.4599 175.869C39.4599 184.637 45.2219 181.13 45.2219 181.13C45.2219 181.13 30.1909 199.167 30.6919 207.434C31.1929 215.701 38.7089 210.941 38.7089 210.941C38.7089 210.941 36.9549 228.728 40.9639 234.239C44.9719 239.75 53.4899 237.746 53.4899 237.746C53.4899 237.746 52.7389 246.765 57.2479 246.514C61.7569 246.264 68.2709 242.005 68.2709 242.005C68.2709 242.005 69.5239 257.036 76.0369 259.541C82.5509 262.046 90.0659 261.295 92.0699 259.04C94.0739 256.785 95.8279 253.028 95.8279 253.028C95.8279 253.028 98.0829 260.293 100.838 255.032C103.594 249.771 102.842 241.003 101.339 238.748C99.8359 236.493 90.3159 215.951 90.3159 212.444C90.3159 208.937 104.595 176.119 105.096 175.117C105.597 174.115 134.657 181.129 135.659 181.881C136.661 182.633 152.193 224.719 152.193 224.719C152.193 224.719 147.684 232.235 148.435 238.998C149.186 245.762 151.942 249.52 160.46 241.002C168.978 232.484 177.245 217.954 177.245 217.954C177.245 217.954 179.249 230.981 185.011 218.205C190.773 205.429 184.259 191.901 182.005 185.638C179.75 179.375 174.489 172.611 174.489 172.611C174.489 172.611 181.754 177.872 181.253 168.853C180.752 159.834 154.949 135.785 144.427 131.526C133.905 127.267 118.373 128.269 118.373 128.269C118.373 128.269 123.884 123.76 117.872 123.509C111.859 123.261 76.7869 124.513 83.5509 145.306Z" fill="#263238" stroke="#263238" stroke-miterlimit="10" stroke-linecap="round" stroke-linejoin="round"/>
<path d="M151.4 221.493C158.196 220.153 162.283 211.859 160.529 202.968C158.776 194.077 151.845 187.955 145.05 189.296C138.255 190.636 134.168 198.93 135.921 207.821C137.675 216.712 144.605 222.834 151.4 221.493Z" fill="white" stroke="#263238" stroke-miterlimit="10" stroke-linecap="round" stroke-linejoin="round"/>
<path d="M92.1086 250.01C92.1086 250.01 90.9766 268.801 92.1086 286.686C93.2406 304.571 90.9766 310.91 93.0146 311.137C95.0526 311.363 94.8256 311.816 97.3156 308.42C99.8056 305.024 108.862 290.308 109.994 290.988C111.126 291.667 111.805 295.289 112.258 298.459C112.711 301.628 121.993 317.929 121.993 317.929C121.993 317.929 128.785 304.798 130.37 301.855C131.955 298.912 131.955 298.459 133.539 294.384C135.124 290.309 136.256 295.29 140.557 300.95C144.859 306.61 151.424 315.439 152.103 312.27C152.782 309.1 147.575 296.422 146.896 283.518C146.217 270.613 147.802 253.407 146.443 248.653C145.085 243.899 131.048 236.428 109.767 236.428C88.4856 236.428 92.1086 250.01 92.1086 250.01Z" fill="white" stroke="#263238" stroke-miterlimit="10" stroke-linecap="round" stroke-linejoin="round"/>
<path d="M101.34 238.749C101.34 238.749 109.316 265.631 113.391 286.46C117.466 307.288 121.994 317.929 121.994 317.929C121.994 317.929 130.597 296.874 135.351 279.441C140.105 262.009 141.69 247.066 141.69 247.066L101.34 238.749Z" fill="#ADADAD" stroke="#263238" stroke-miterlimit="10" stroke-linecap="round" stroke-linejoin="round"/>
<path d="M140.332 251.368C140.332 251.368 132.861 259.518 132.182 268.348" stroke="#263238" stroke-miterlimit="10" stroke-linecap="round" stroke-linejoin="round"/>
<path d="M112.92 284.115C113.081 284.903 113.24 285.687 113.391 286.46C117.466 307.288 121.994 317.929 121.994 317.929C121.994 317.929 128.865 301.11 133.719 285.09C127.063 287.087 118.473 285.559 112.92 284.115Z" fill="#263238" stroke="#263238" stroke-miterlimit="10" stroke-linecap="round" stroke-linejoin="round"/>
<path d="M99.3348 164.346L83.0508 208.687C83.0508 208.687 89.8148 228.728 92.8208 233.989C95.8268 239.25 101.589 242.757 108.102 245.763C114.615 248.769 136.16 254.03 140.669 252.276C145.178 250.522 155.951 232.986 156.953 228.978C157.955 224.97 146.431 182.632 145.429 180.628C144.428 178.625 99.3348 164.346 99.3348 164.346Z" fill="#ADADAD" stroke="#263238" stroke-miterlimit="10" stroke-linecap="round" stroke-linejoin="round"/>
<path d="M105.848 208.687C105.848 208.687 113.363 211.443 118.875 206.182" stroke="#263238" stroke-miterlimit="10" stroke-linecap="round" stroke-linejoin="round"/>
<path d="M100.336 200.671C100.336 200.671 102.34 194.909 107.1 192.905C111.86 190.901 118.624 192.404 118.373 194.158C118.122 195.912 113.363 194.409 110.607 194.659C107.851 194.909 100.336 200.671 100.336 200.671Z" fill="#263238"/>
<path d="M132.402 194.157C132.402 194.157 133.905 189.397 136.661 189.147C139.417 188.897 148.611 191.711 145.93 191.402C143.713 191.146 135.327 190.826 132.402 194.157Z" fill="#263238"/>
<path d="M137.162 202.925C137.162 202.925 143.926 204.178 146.682 200.42" stroke="#263238" stroke-miterlimit="10" stroke-linecap="round" stroke-linejoin="round"/>
<path d="M132.403 194.157C132.403 194.157 130.399 197.915 132.904 202.925" stroke="#263238" stroke-miterlimit="10" stroke-linecap="round" stroke-linejoin="round"/>
<path d="M140.67 216.203C140.67 216.203 137.413 219.209 133.906 220.211" stroke="#263238" stroke-miterlimit="10" stroke-linecap="round" stroke-linejoin="round"/>
<path d="M116.369 221.964C116.369 221.964 120.127 226.974 124.887 227.475C129.647 227.976 138.164 225.972 140.67 224.469" stroke="#263238" stroke-miterlimit="10" stroke-linecap="round" stroke-linejoin="round"/>
<path d="M118.123 220.211L114.867 223.969" stroke="#263238" stroke-miterlimit="10" stroke-linecap="round" stroke-linejoin="round"/>
<path d="M74.3653 207.68C74.3653 207.68 63.7823 189.076 70.6193 170.709C77.0153 153.525 85.9843 150.335 86.0913 150.188C86.0913 150.188 74.2023 150.025 66.7103 167.452C59.2183 184.879 68.5023 211.101 68.5023 211.101L74.3653 207.68Z" fill="white" stroke="#263238" stroke-miterlimit="10" stroke-linecap="round" stroke-linejoin="round"/>
<path d="M191.045 360.039C187.423 356.87 186.291 353.926 184.706 353.7C183.121 353.474 182.216 352.115 177.009 353.474C173.107 354.492 163.614 355.382 159.099 355.765L159.124 355.512C159.124 355.512 148.936 355.512 127.881 355.512C106.826 355.512 81.2426 353.248 81.2426 353.248L75.8086 383.359C75.8086 383.359 86.2226 381.774 104.788 379.963C116.261 378.844 133.778 375.046 145.493 372.306L157.312 370.681C157.312 370.681 167.047 372.945 173.386 372.039C179.725 371.134 183.348 367.511 183.348 367.511C183.348 367.511 183.348 370.001 184.48 370.68C185.612 371.359 194.668 369.322 196.253 368.869C197.838 368.416 197.838 368.19 198.064 365.699C198.289 363.208 194.667 363.208 191.045 360.039Z" fill="#ADADAD" stroke="#263238" stroke-miterlimit="10" stroke-linecap="round" stroke-linejoin="round"/>
<path d="M150.745 334.682C150.745 334.682 140.783 342.606 141.689 344.643C142.595 346.681 146.896 351.888 146.896 353.02C146.896 354.152 141.236 368.641 145.085 371.358C148.934 374.075 161.838 379.961 176.328 379.735C190.817 379.509 197.836 368.189 199.647 365.246C201.458 362.303 198.289 346.002 195.572 338.305C192.855 330.607 181.535 327.664 171.574 329.023C161.612 330.381 150.745 334.682 150.745 334.682Z" fill="white" stroke="#263238" stroke-miterlimit="10" stroke-linecap="round" stroke-linejoin="round"/>
<path d="M83.7969 232.532C83.7969 232.532 86.5249 242.42 95.7299 259.468C104.936 276.516 109.709 312.317 114.483 325.614C119.256 338.911 123.348 343.344 123.348 343.344C123.348 343.344 131.19 319.136 138.009 295.61C144.828 272.084 154.257 251.156 152.782 245.936" stroke="#263238" stroke-miterlimit="10" stroke-linecap="round" stroke-linejoin="round"/>
<path d="M150.293 225.106C150.293 225.106 142.596 234.162 143.954 235.294C145.312 236.426 146.443 237.332 147.575 236.652C148.707 235.973 150.519 234.841 150.519 234.841C150.519 234.841 143.048 243.897 140.331 251.368C137.614 258.839 140.557 258.16 141.237 263.367C141.916 268.574 148.482 331.739 149.161 340.342C149.84 348.945 151.878 354.605 161.613 355.963C171.348 357.321 183.347 348.945 184.479 346.454C185.611 343.964 186.516 340.794 184.704 335.36C182.893 329.926 152.652 268.744 154.821 264.271C158.443 256.8 171.574 233.028 172.254 230.764C172.933 228.5 161.387 222.84 159.349 221.255C157.311 219.673 151.199 222.842 150.293 225.106Z" fill="#ADADAD" stroke="#263238" stroke-miterlimit="10" stroke-linecap="round" stroke-linejoin="round"/>
<path d="M150.293 225.106C150.293 225.106 152.331 222.616 155.274 223.748C158.217 224.88 162.971 228.955 162.292 230.766" stroke="#263238" stroke-miterlimit="10" stroke-linecap="round" stroke-linejoin="round"/>
<path d="M155.047 221.484C155.047 221.484 157.764 221.031 161.613 223.522C165.462 226.012 168.405 228.276 168.178 229.635" stroke="#263238" stroke-miterlimit="10" stroke-linecap="round" stroke-linejoin="round"/>
<path d="M150.518 234.841L153.914 232.351L151.877 230.766" stroke="#263238" stroke-miterlimit="10" stroke-linecap="round" stroke-linejoin="round"/>
<path d="M70.3739 250.915C70.3739 250.915 59.0539 250.462 47.9609 262.235C36.8679 274.008 34.3769 291.214 34.3769 291.214C34.3769 291.214 22.6039 338.984 18.3029 358.227C14.0019 377.471 14.4539 381.772 23.5099 385.395C32.5659 389.017 41.6219 387.659 48.6399 387.659C55.6579 387.659 61.5449 386.074 61.5449 386.074L74.9019 350.983L77.8449 337.852C77.8449 337.852 88.4859 325.627 88.7119 305.93" fill="#E3073C"/>
<path d="M70.3739 250.915C70.3739 250.915 59.0539 250.462 47.9609 262.235C36.8679 274.008 34.3769 291.214 34.3769 291.214C34.3769 291.214 22.6039 338.984 18.3029 358.227C14.0019 377.471 14.4539 381.772 23.5099 385.395C32.5659 389.017 41.6219 387.659 48.6399 387.659C55.6579 387.659 61.5449 386.074 61.5449 386.074L74.9019 350.983L77.8449 337.852C77.8449 337.852 88.4859 325.627 88.7119 305.93" stroke="#263238" stroke-miterlimit="10" stroke-linecap="round" stroke-linejoin="round"/>
<path d="M69.4774 303.455C69.0184 302.166 68.5604 301.014 68.1094 300.044" stroke="#263238" stroke-miterlimit="10" stroke-linecap="round" stroke-linejoin="round"/>
<path d="M77.8439 337.852C77.8439 337.852 74.4719 319.671 70.7949 307.498" stroke="#263238" stroke-miterlimit="10" stroke-linecap="round" stroke-linejoin="round"/>
<path d="M64.939 348.493C64.939 348.493 54.751 337.173 42.752 334.004" stroke="#263238" stroke-miterlimit="10" stroke-linecap="round" stroke-linejoin="round"/>
<path d="M33.4661 343.979C32.0581 343.985 30.7551 344.12 29.6211 344.418" stroke="#263238" stroke-miterlimit="10" stroke-linecap="round" stroke-linejoin="round"/>
<path d="M56.5631 349.398C56.5631 349.398 45.2641 344.934 36.2441 344.109" stroke="#263238" stroke-miterlimit="10" stroke-linecap="round" stroke-linejoin="round"/>
<path d="M83.2783 352.568C83.2783 352.568 82.5993 379.056 81.9203 381.773C81.2413 384.49 80.7883 384.716 78.0713 386.074C75.3543 387.432 52.7153 389.244 48.4133 389.244C44.1123 389.244 39.3573 381.546 42.7533 366.604C46.1493 351.662 53.3943 343.059 58.8273 343.059C64.2603 343.059 82.3723 350.53 82.3723 350.53L83.2783 352.568Z" fill="white" stroke="#263238" stroke-miterlimit="10" stroke-linecap="round" stroke-linejoin="round"/>
<path d="M88.2542 216.06C91.8382 224.384 89.5862 233.352 83.2242 236.091C76.8622 238.83 68.8002 234.303 65.2162 225.979C61.6322 217.655 63.8842 208.687 70.2462 205.948C76.6072 203.21 84.6702 207.737 88.2542 216.06Z" fill="white" stroke="#263238" stroke-miterlimit="10" stroke-linecap="round" stroke-linejoin="round"/>
<path d="M81.6341 220.263C84.0081 225.777 82.5161 231.717 78.3021 233.532C74.0881 235.346 68.7471 232.348 66.3731 226.834C63.9991 221.32 65.4911 215.38 69.7051 213.565C73.9191 211.751 79.2601 214.749 81.6341 220.263Z" fill="white" stroke="#263238" stroke-miterlimit="10" stroke-linecap="round" stroke-linejoin="round"/>
<path d="M320.184 364.528V368.687" stroke="#263238" stroke-width="2" stroke-miterlimit="10" stroke-linecap="round" stroke-linejoin="round"/>
<path d="M123.348 343.343C123.348 343.343 128.803 353.913 129.826 365.505C130.849 377.098 143.123 392.441 173.81 393.123C204.496 393.805 217.794 397.214 243.706 403.011C269.619 408.807 286.326 407.784 291.781 391.418C297.236 375.052 312.579 366.528 320.183 364.527" stroke="#263238" stroke-miterlimit="10" stroke-linecap="round" stroke-linejoin="round"/>
<path d="M121.678 406L48.9531 446.64L177.291 473.163L239.748 423.539L121.678 406Z" fill="#E3073C" stroke="#263238" stroke-miterlimit="10" stroke-linecap="round" stroke-linejoin="round"/>
<path d="M85.7207 426.08C85.7207 426.08 94.0527 427.711 99.0207 423.606C101.789 421.319 100.515 417.699 100.515 417.699L85.7207 426.08Z" fill="#E3073C" stroke="#263238" stroke-miterlimit="10" stroke-linecap="round" stroke-linejoin="round"/>
<path d="M234.707 435.329C234.707 445.767 205.05 454.206 168.469 454.206C151.713 454.206 136.406 452.437 124.732 449.516C116.704 447.498 110.394 444.941 106.528 442.038C103.754 439.962 102.232 437.694 102.232 435.329C102.232 424.91 131.889 416.452 168.47 416.452C183.139 416.452 196.691 417.817 207.678 420.104C214.515 421.546 220.346 423.353 224.827 425.41C231.086 428.293 234.707 431.695 234.707 435.329Z" fill="#263238" stroke="#263238" stroke-miterlimit="10" stroke-linecap="round" stroke-linejoin="round"/>
<path d="M150.731 436.021L106.527 442.038C110.394 444.941 116.703 447.497 124.731 449.516L154.339 436.617L150.731 436.021ZM207.676 420.104L185.629 427.409L185.261 429.774L224.825 425.41C220.344 423.352 214.514 421.546 207.676 420.104Z" fill="white" stroke="#263238" stroke-miterlimit="10" stroke-linecap="round" stroke-linejoin="round"/>
<path d="M193.315 431.168C193.315 435.079 182.192 438.25 168.47 438.25C154.748 438.25 143.625 435.079 143.625 431.168C143.625 427.257 154.749 424.086 168.47 424.086C182.191 424.086 193.315 427.257 193.315 431.168Z" fill="white" stroke="#263238" stroke-miterlimit="10" stroke-linecap="round" stroke-linejoin="round"/>
<path d="M231.847 133.691C231.847 133.053 231.547 132.453 231.035 132.07C230.523 131.689 229.862 131.568 229.25 131.751L207.988 138.05C207.129 138.305 206.54 139.094 206.54 139.989V164.33C205.841 164.06 205.088 163.897 204.293 163.897C200.837 163.897 198.035 166.699 198.035 170.154C198.035 173.61 200.837 176.412 204.293 176.412C207.562 176.412 210.215 173.896 210.496 170.699H210.585V152.13L227.802 147.028V157.777C227.114 157.517 226.377 157.357 225.599 157.357C222.143 157.357 219.341 160.159 219.341 163.614C219.341 167.07 222.143 169.872 225.599 169.872C229.055 169.872 231.856 167.07 231.856 163.614C231.856 163.582 231.847 163.552 231.846 163.52V133.691H231.847ZM227.802 142.81L210.585 147.912V141.5L227.802 136.399V142.81Z" fill="#263238"/>
</svg>
